<?xml version="1.0" standalone="no"?>
<!DOCTYPE svg PUBLIC "-//W3C//DTD SVG 20010904//EN"
 "http://www.w3.org/TR/2001/REC-SVG-20010904/DTD/svg10.dtd">
<svg version="1.0" xmlns="http://www.w3.org/2000/svg"
 width="745.000000pt" height="208.000000pt" viewBox="0 0 745.000000 208.000000"
 preserveAspectRatio="xMidYMid meet">

<g transform="translate(0.000000,208.000000) scale(0.100000,-0.100000)"
fill="#000000" stroke="none">
<path d="M0 1040 l0 -1040 3725 0 3725 0 0 1040 0 1040 -3725 0 -3725 0 0
-1040z m3716 968 c-6 11 -4 11 10 4 11 -6 219 -15 484 -21 256 -6 474 -13 485
-15 11 -2 70 -7 130 -10 221 -13 737 -73 960 -112 44 -7 100 -16 125 -19 50
-7 67 -11 250 -49 69 -14 143 -31 165 -36 22 -6 71 -18 109 -26 37 -8 125 -33
195 -55 508 -160 750 -363 751 -627 0 -200 -131 -360 -409 -496 -397 -195
-1197 -359 -2076 -426 -77 -6 -160 -13 -185 -15 -25 -3 -255 -10 -512 -17
-257 -7 -464 -16 -462 -20 3 -4 0 -8 -5 -8 -6 0 -11 6 -11 13 0 8 -4 7 -10 -3
-7 -11 -12 -12 -17 -4 -6 8 -113 13 -343 18 -316 6 -379 8 -610 22 -236 13
-547 43 -870 84 -167 21 -618 103 -760 140 -215 54 -369 99 -445 130 -11 5
-42 16 -70 26 -72 26 -268 127 -318 165 -57 44 -136 120 -149 143 -6 12 7 5
32 -17 24 -20 46 -37 49 -37 3 1 18 17 32 38 25 36 27 37 150 61 68 13 155 30
194 37 45 9 73 10 79 4 5 -5 6 -13 2 -17 -4 -4 -11 -1 -16 6 -7 12 -11 12 -23
-1 -8 -8 -77 -27 -154 -41 -128 -25 -140 -29 -166 -60 -52 -59 -52 -62 1 -95
26 -17 83 -48 126 -68 l79 -38 16 24 c9 13 43 62 76 109 63 90 56 85 163 105
19 3 31 2 27 -3 -3 -5 1 -11 7 -14 7 -2 0 -8 -17 -11 -58 -13 -80 -30 -81 -61
0 -22 -5 -29 -16 -27 -9 1 -19 -6 -23 -18 -3 -11 -11 -20 -16 -20 -5 0 -9 -6
-9 -14 0 -8 -3 -16 -7 -18 -5 -1 -20 -19 -34 -38 l-27 -36 93 -36 93 -35 84
131 83 131 55 1 c30 0 66 4 79 8 15 5 21 5 17 -2 -3 -5 -26 -13 -51 -16 -45
-7 -49 -11 -45 -55 1 -14 -2 -21 -9 -17 -6 4 -11 1 -11 -6 0 -8 -9 -21 -20
-31 -11 -9 -37 -43 -57 -75 -20 -31 -40 -59 -45 -60 -4 -2 -8 -10 -8 -17 0
-14 131 -60 200 -71 32 -5 37 -3 50 23 36 68 134 240 148 256 18 20 34 23 26
3 -4 -10 6 -16 35 -21 23 -4 41 -11 41 -16 0 -5 -5 -9 -11 -9 -12 0 -39 -25
-39 -36 0 -4 -11 -22 -25 -40 -14 -18 -29 -44 -35 -58 -5 -14 -14 -26 -19 -26
-5 0 -14 -13 -21 -30 -7 -16 -18 -30 -24 -30 -51 -2 233 -103 349 -124 193
-36 313 -54 422 -66 50 -6 99 -13 107 -16 11 -4 16 0 16 12 0 9 7 26 17 36 15
17 15 18 -2 18 -11 0 -15 5 -12 15 5 11 0 13 -22 9 -16 -4 -37 -1 -48 5 -13 8
-14 11 -3 11 13 0 13 1 0 10 -20 13 -43 13 -35 0 3 -6 -1 -10 -10 -10 -11 0
-15 5 -12 14 6 16 -72 42 -98 32 -10 -4 -14 -2 -9 6 5 7 -1 9 -19 6 -15 -3
-24 -1 -21 3 3 5 -1 9 -9 9 -7 0 -23 9 -35 20 -24 23 -23 28 37 167 32 75 38
98 21 88 -5 -3 -10 3 -10 14 0 11 -7 24 -16 29 -13 7 -14 13 -6 28 10 17 11
17 12 2 0 -9 9 -23 20 -31 27 -19 36 -69 16 -86 -20 -17 -21 -41 -1 -41 8 0
18 0 23 -1 4 -1 16 25 27 57 15 42 26 60 40 62 16 2 17 1 5 -7 -8 -5 -12 -13
-8 -16 10 -10 49 5 43 16 -4 5 0 9 8 9 7 0 20 12 28 27 l14 26 6 -29 c8 -43 2
-51 -51 -65 -43 -11 -49 -16 -59 -50 -6 -21 -18 -45 -27 -54 -8 -8 -13 -15
-10 -15 9 0 -17 -64 -32 -79 -23 -24 3 -37 168 -86 158 -47 269 -81 510 -155
74 -23 140 -48 145 -54 12 -15 273 -31 293 -18 8 5 -5 14 -40 24 -84 25 -108
29 -108 18 0 -5 -4 -10 -10 -10 -5 0 -10 7 -10 15 0 17 -16 21 -22 5 -2 -7
-24 -3 -58 9 -35 12 -46 20 -32 20 13 1 32 -4 43 -10 11 -6 25 -8 32 -6 7 2
-8 10 -33 17 -25 7 -82 23 -128 37 -46 13 -88 23 -94 21 -6 -2 19 -12 55 -22
37 -10 70 -22 72 -27 6 -8 -42 -2 -59 8 -5 4 -26 10 -45 14 -57 12 -249 66
-261 74 -9 6 -9 10 1 16 8 5 -2 6 -25 2 -24 -4 -37 -2 -33 4 3 5 -7 17 -23 26
-29 18 -30 23 -10 72 5 11 18 58 29 105 19 75 19 86 6 96 -8 6 -15 17 -15 24
0 8 -6 21 -14 29 -12 14 -11 18 11 35 l25 19 -6 -31 c-6 -27 -4 -31 23 -40 37
-13 37 -16 11 -84 -11 -29 -20 -59 -20 -66 0 -27 24 -5 37 33 7 22 18 42 25
46 6 4 9 18 6 32 -3 18 0 28 11 32 8 3 17 1 19 -4 2 -6 8 -11 14 -11 6 0 7 7
4 15 -4 11 3 19 20 25 19 8 25 16 21 29 -3 14 -1 18 9 14 8 -3 14 -8 15 -12 0
-3 2 -20 5 -38 4 -36 -11 -49 -62 -55 -30 -3 -52 -37 -53 -84 -1 -11 -10 -49
-22 -84 -17 -51 -18 -65 -7 -71 15 -10 42 -18 343 -105 492 -141 447 -126 439
-149 -8 -21 2 -23 179 -30 151 -6 157 -6 157 13 0 30 -16 38 -135 67 -60 15
-139 36 -175 46 -36 10 -82 21 -102 25 -21 3 -38 11 -38 17 0 6 -2 8 -5 5 -7
-7 -203 42 -285 71 -25 9 -48 15 -52 14 -4 -2 -15 13 -24 32 -14 31 -15 43 -4
102 7 38 17 79 22 92 7 19 4 29 -13 47 -12 13 -19 27 -16 31 4 3 2 12 -4 19
-13 16 -5 44 11 44 6 0 8 -5 5 -11 -9 -13 23 -49 42 -49 16 0 13 -43 -6 -107
-5 -18 -8 -33 -6 -33 3 0 0 -11 -5 -25 -5 -14 -6 -27 0 -30 12 -7 22 11 31 54
4 20 10 47 13 61 3 14 8 38 12 53 4 19 9 26 16 19 6 -6 23 -4 50 6 33 13 39
19 35 39 -3 15 0 22 7 20 6 -2 11 -21 11 -42 0 -37 -2 -38 -47 -52 -33 -9 -48
-19 -49 -31 -2 -53 -18 -123 -31 -140 -7 -8 -7 -12 1 -12 6 0 10 -5 9 -11 -3
-12 39 -28 167 -64 50 -14 104 -30 120 -35 110 -34 191 -40 122 -9 -60 27 -99
57 -91 71 3 5 1 15 -5 21 -13 16 4 194 20 214 20 23 27 14 18 -24 -11 -50 -11
-163 0 -163 15 0 21 28 21 93 0 62 11 99 24 79 7 -12 42 -4 97 21 52 24 83 31
75 18 -8 -13 -5 -13 53 -2 34 7 53 5 78 -7 18 -9 33 -19 33 -24 0 -4 15 -7 33
-6 l32 3 0 -73 c0 -69 2 -75 25 -87 34 -17 110 -29 110 -17 0 5 -24 18 -52 29
l-53 20 0 76 c0 91 13 89 17 -3 l3 -65 50 -16 c49 -15 50 -16 58 -65 5 -27 9
-64 9 -81 2 -38 13 -41 77 -19 22 8 71 22 108 32 38 9 72 19 77 22 5 3 -32 19
-84 36 l-93 31 -4 40 c-10 130 -14 145 -36 146 -12 1 -26 1 -30 0 -5 -1 -6 3
-2 9 3 5 2 10 -2 10 -5 0 -9 17 -10 38 0 20 2 30 5 22 6 -17 22 -30 37 -30 6
0 9 24 7 60 l-4 60 -54 0 -54 0 0 -64 0 -64 -75 -4 c-72 -3 -154 9 -127 19 7
3 12 25 12 59 l0 54 -159 0 c-132 0 -160 3 -165 15 -3 8 -4 21 -2 28 3 6 7 24
10 40 6 26 8 27 76 27 38 0 81 5 95 12 l25 11 0 179 c0 219 4 211 -122 217
l-89 3 3 47 3 46 163 3 162 2 0 24 c0 21 -5 24 -34 24 -50 0 -76 11 -86 35 -8
23 12 57 34 57 7 0 13 14 14 31 4 47 28 77 70 84 52 8 65 19 68 54 1 16 5 35
9 42 5 8 4 10 -3 5 -7 -4 -12 -3 -12 3 0 5 5 11 11 13 5 2 12 36 14 76 4 70 4
72 -22 78 -25 7 -213 -3 -221 -11 -2 -2 -9 -62 -15 -132 -6 -80 -15 -133 -24
-141 -7 -7 -13 -10 -13 -6 0 3 -6 2 -12 -3 -7 -6 -30 -13 -50 -17 -21 -4 -38
-11 -38 -16 0 -5 -7 -7 -15 -4 -9 4 -15 0 -16 -10 -3 -29 -4 -34 -12 -42 -4
-4 -14 -9 -21 -10 -7 -1 -23 -5 -34 -8 -11 -4 -23 -2 -27 4 -3 6 -10 8 -15 5
-5 -3 -20 0 -35 7 -19 8 -22 14 -13 21 9 6 8 7 -5 3 -10 -3 -23 -6 -28 -6 -5
0 -9 -7 -9 -15 0 -9 9 -15 25 -15 14 0 25 -4 25 -10 0 -5 7 -7 15 -4 8 4 15 1
15 -6 0 -6 4 -9 9 -6 5 3 22 -1 37 -9 34 -17 54 -19 54 -5 0 6 -8 10 -17 10
-15 0 -15 2 -4 9 8 5 20 7 26 5 11 -5 29 30 26 49 -1 5 3 6 9 2 6 -4 6 -13 0
-25 -6 -11 -14 -29 -20 -40 -13 -26 -13 -30 3 -30 15 0 40 47 33 59 -3 4 1 8
9 8 8 0 15 -9 15 -19 0 -10 -4 -18 -10 -18 -5 0 -10 -5 -10 -10 0 -6 8 -5 20
2 11 7 20 18 20 25 0 17 8 16 26 -2 9 -9 11 -15 4 -15 -6 0 -9 -4 -5 -9 8 -14
-23 -41 -48 -42 -12 -1 -39 -1 -59 -1 -40 0 -39 1 -42 -63 -1 -17 -9 -21 -49
-23 l-47 -3 -2 48 c-3 87 -3 88 -21 85 -9 -2 -25 2 -36 8 -14 7 -21 6 -25 -3
-4 -6 -5 -3 -3 8 3 15 -2 20 -19 20 -12 0 -20 -3 -17 -7 7 -13 -6 -9 -35 9
l-27 17 18 -21 c11 -13 14 -23 8 -27 -6 -4 -8 -13 -5 -21 4 -9 -3 -16 -21 -21
l-27 -7 36 -20 c35 -20 36 -23 36 -79 0 -47 -3 -56 -15 -52 -8 4 -15 10 -15
14 0 5 -26 21 -57 37 -49 23 -70 28 -135 27 -105 -1 -160 -33 -203 -119 -27
-54 -30 -69 -30 -155 0 -119 20 -175 78 -225 46 -40 98 -57 168 -57 51 1 141
33 175 64 11 10 23 18 27 18 4 0 7 -24 7 -54 l0 -54 -44 -21 c-70 -32 -131
-44 -209 -39 -114 7 -207 60 -263 150 -28 45 -54 136 -54 192 0 39 0 39 -21
20 -12 -11 -18 -26 -15 -37 3 -13 -1 -21 -13 -24 -12 -3 -17 -14 -17 -38 0
-19 4 -31 8 -29 4 3 8 -2 8 -10 0 -15 -11 -20 -38 -17 -9 1 -11 -9 -8 -35 3
-20 7 -39 10 -42 9 -9 -45 -32 -58 -25 -6 4 -5 -1 3 -10 11 -14 11 -20 1 -32
-9 -10 -9 -15 -1 -15 17 0 13 -27 -5 -34 -9 -4 -56 -11 -103 -16 -47 -5 -113
-16 -146 -25 -170 -45 -209 -54 -213 -50 -3 3 -3 6 -1 8 8 6 124 38 154 43 17
2 46 11 66 18 20 8 40 12 45 8 5 -4 3 0 -4 9 -6 9 -9 19 -5 22 10 11 83 8 83
-2 0 -14 75 -8 93 8 22 17 22 39 0 63 -15 17 -15 18 0 18 23 0 57 31 57 52 0
9 -9 22 -19 28 -24 12 -108 13 -115 1 -3 -5 -23 -9 -43 -10 -41 0 -40 0 -158
-30 -67 -17 -204 -43 -240 -46 -5 -1 -19 -4 -30 -8 -11 -3 -31 -8 -45 -11 -14
-2 -44 -9 -67 -14 -24 -5 -43 -6 -43 -1 0 5 12 11 28 14 15 3 42 10 60 16 19
6 36 9 39 6 2 -3 28 3 57 13 28 9 73 20 99 23 26 3 52 9 57 12 6 4 23 8 38 10
47 6 196 46 208 56 6 5 20 6 29 2 12 -4 16 -3 11 5 -4 7 5 7 26 -2 46 -19 88
-21 120 -6 23 11 27 19 25 45 -1 24 -6 31 -22 30 -15 -2 -15 -1 -2 2 9 2 17 9
17 14 0 5 6 8 12 7 7 -2 14 7 16 20 2 16 -3 25 -20 31 -23 10 -23 10 -1 10 51
2 68 26 36 52 -14 13 -13 14 13 19 22 4 30 11 32 32 2 19 -2 28 -15 31 -15 4
-14 5 3 6 30 1 51 28 36 43 -18 18 -15 25 13 32 27 7 32 25 13 44 -9 9 -7 12
12 14 14 1 32 2 41 3 9 0 23 6 31 12 29 25 106 50 171 57 37 4 67 12 67 18 0
6 -15 8 -34 6 -19 -2 -32 0 -30 4 3 4 2 8 -3 9 -28 2 -139 37 -123 38 8 1 0 9
-17 17 -38 19 -41 36 -14 81 17 27 30 33 93 48 40 10 84 19 96 20 13 2 47 9
75 15 190 43 212 51 204 74 -3 6 1 18 8 26 7 8 15 29 17 45 l3 30 -90 -3 c-49
-1 -140 -7 -202 -14 l-112 -11 -16 -45 c-18 -56 -19 -62 -1 -62 7 0 19 -6 25
-14 9 -11 8 -15 -6 -21 -10 -5 -20 -9 -23 -9 -3 -1 -9 -4 -15 -7 -14 -8 -96
-4 -117 5 -36 16 -14 46 32 46 20 0 44 33 33 44 -3 3 -2 6 4 6 6 0 13 12 16
26 l5 26 -72 -7 c-146 -13 -142 -10 -164 -68 l-19 -52 23 -10 c33 -14 17 -36
-32 -45 l-39 -7 42 -8 c35 -6 42 -11 45 -34 2 -14 -3 -31 -11 -37 -12 -9 -11
-14 7 -32 16 -16 34 -22 67 -22 25 0 45 -4 45 -10 0 -5 -23 -10 -51 -10 -43 0
-50 -3 -45 -16 3 -9 6 -20 6 -25 0 -5 10 -10 23 -10 16 -1 17 -3 5 -6 -9 -2
-34 7 -55 21 -21 14 -44 26 -53 26 -24 0 -40 45 -29 83 5 17 9 32 9 33 0 1
-74 1 -165 0 -91 -1 -165 2 -165 6 0 4 -12 3 -26 -2 -14 -6 -38 -10 -53 -10
-46 0 -86 -19 -104 -49 -9 -16 -17 -31 -17 -34 0 -6 108 -22 285 -42 11 -1 31
-3 45 -4 23 -2 24 -3 5 -11 -11 -5 -35 -9 -52 -9 -18 -1 -33 -5 -33 -11 0 -5
7 -7 15 -4 8 4 15 1 15 -6 0 -8 13 -10 44 -7 32 4 48 2 57 -9 8 -10 8 -14 0
-14 -6 0 -11 4 -11 8 0 4 -15 6 -32 5 -43 -5 -123 11 -121 23 1 5 -6 10 -15
10 -9 0 -28 4 -42 8 l-25 7 25 -15 c25 -15 25 -16 -10 -9 -19 3 -37 9 -40 13
-7 11 -80 19 -80 10 0 -5 -13 -5 -30 0 -16 5 -30 6 -30 4 0 -3 -7 1 -15 9 -8
9 -20 17 -27 19 -15 5 2 50 35 90 18 22 36 29 92 38 68 11 183 54 123 46 -17
-2 -25 1 -21 7 4 6 -3 8 -18 4 -26 -6 -149 -30 -242 -48 -58 -11 -59 -11 -103
-81 -25 -39 -43 -73 -40 -76 8 -8 173 -32 221 -32 22 0 58 -5 80 -12 l40 -12
-35 -7 c-19 -3 -28 -7 -19 -8 9 0 22 -7 28 -15 6 -7 22 -11 36 -8 14 2 25 0
25 -4 0 -5 29 -9 64 -9 36 1 63 -2 60 -6 -2 -4 4 -8 13 -7 10 0 34 -3 53 -6
l35 -7 -30 15 -30 16 35 -6 c19 -4 36 -10 38 -15 2 -4 10 -5 19 -2 10 4 14 2
9 -5 -4 -7 6 -10 31 -10 63 2 134 -5 139 -14 3 -4 -7 -13 -22 -18 -28 -11
-107 1 -146 21 -25 13 -41 11 -32 -3 5 -7 3 -8 -7 -3 -18 12 -55 18 -116 18
-29 0 -53 4 -53 9 0 4 -7 4 -17 1 -12 -5 -14 -3 -8 7 6 10 4 12 -10 6 -22 -8
-116 14 -109 26 3 4 0 8 -5 8 -6 0 -11 -4 -11 -8 0 -4 -44 -9 -97 -10 -177 -4
-192 -6 -181 -19 8 -10 4 -10 -21 -2 -17 6 -31 13 -31 16 0 3 7 2 16 -1 8 -3
13 -2 10 3 -5 7 -100 20 -183 24 -17 1 -29 5 -26 10 2 4 -5 7 -16 7 -32 0 -35
18 -8 53 14 18 53 66 86 108 49 62 56 76 38 72 -44 -10 -164 -44 -264 -75
-102 -31 -102 -31 -157 -98 l-55 -68 42 -11 c76 -20 351 -64 402 -65 l50 0
-37 -10 c-21 -5 -38 -12 -38 -15 0 -3 14 -14 31 -23 19 -11 28 -22 23 -30 -6
-9 -9 -9 -12 0 -2 7 -8 10 -13 6 -5 -3 -9 0 -9 5 0 6 -9 11 -19 11 -11 0 -21
4 -23 10 -4 12 -85 33 -213 54 -55 10 -116 20 -135 23 -19 4 -42 7 -52 7 -9 1
-20 4 -24 9 -4 4 -16 7 -26 7 -19 0 -25 24 -9 35 5 3 24 23 41 45 l31 40 -38
-14 c-73 -26 -243 -109 -238 -116 3 -4 26 -11 52 -15 27 -3 91 -15 143 -24 52
-10 152 -29 222 -42 78 -14 121 -27 110 -31 -26 -10 -102 -9 -136 2 -17 5 -78
18 -136 29 -58 11 -149 30 -202 41 l-97 20 -37 -22 c-36 -21 -37 -22 -13 -29
13 -4 124 -26 247 -49 180 -35 222 -46 221 -59 0 -10 -3 -11 -5 -4 -3 7 -16
10 -33 7 -28 -6 -59 -1 -256 41 -240 52 -229 52 -275 15 -22 -17 -40 -36 -40
-42 0 -6 27 -8 78 -4 64 6 101 2 221 -23 79 -17 146 -33 149 -35 12 -13 -55
-17 -101 -7 -168 36 -201 40 -286 36 -50 -2 -91 -2 -91 1 0 11 44 70 84 112
63 67 107 97 281 192 88 48 388 152 535 186 150 35 368 82 435 94 177 31 327
54 450 70 367 47 604 70 870 85 55 3 132 7 170 10 39 2 226 7 418 11 217 4
347 10 347 17 0 5 8 3 17 -4 13 -11 15 -11 9 -1z m-1437 -448 c23 -12 37 -41
16 -34 -8 3 -16 -3 -20 -15 -3 -12 -11 -19 -16 -15 -6 3 -7 -5 -3 -22 4 -17 3
-25 -3 -21 -6 4 -13 16 -16 28 -4 15 0 23 14 26 21 6 25 33 7 51 -14 14 -3 16
21 2z m-277 -97 c32 -1 70 -9 85 -18 l28 -16 -40 5 c-22 3 -56 7 -75 11 -19 3
-51 7 -70 10 -48 5 -48 5 -25 14 11 5 25 6 30 2 6 -3 36 -7 67 -8z m208 3 c0
-9 -40 -13 -46 -5 -3 5 6 9 20 9 14 0 26 -2 26 -4z m-880 -66 c0 -5 -4 -10 -9
-10 -6 0 -13 5 -16 10 -3 6 1 10 9 10 9 0 16 -4 16 -10z m50 0 c0 -5 -10 -10
-22 -9 -22 0 -22 1 -3 9 11 5 21 9 23 9 1 1 2 -3 2 -9z m757 4 c-3 -3 -12 -4
-19 -1 -8 3 -5 6 6 6 11 1 17 -2 13 -5z m-602 -12 c5 -3 16 -7 25 -8 8 -1 26
-4 40 -8 71 -17 126 -26 137 -22 7 3 15 2 17 -3 5 -7 68 -14 123 -13 13 0 20
-4 17 -9 -3 -5 9 -6 26 -3 17 4 30 2 30 -3 0 -6 14 -9 31 -7 16 2 28 0 24 -5
-3 -5 3 -7 13 -5 9 3 28 1 42 -4 22 -8 18 -10 -28 -13 -28 -2 -52 -1 -52 4 0
4 -9 7 -20 7 -11 0 -20 5 -20 10 0 7 -6 7 -19 1 -10 -6 -20 -8 -23 -6 -2 2
-27 6 -55 9 -28 3 -80 10 -114 15 -60 10 -114 18 -132 20 -5 1 -5 6 -1 13 5 8
2 9 -9 5 -10 -3 -17 -2 -17 3 0 6 -5 10 -11 10 -5 0 -7 -5 -3 -11 4 -7 0 -9
-12 -6 -60 16 -76 18 -68 5 5 -10 4 -10 -6 -1 -7 6 -20 9 -29 6 -13 -4 -13 -3
-2 5 11 8 9 11 -10 14 -13 2 3 4 36 5 33 0 64 -2 70 -5z m-295 -26 c0 -8 -5
-18 -11 -22 -8 -4 -7 -9 2 -15 16 -10 12 -14 -21 -23 -19 -6 -21 -5 -10 3 13
10 13 11 0 11 -10 0 -7 6 9 19 13 10 21 23 17 30 -4 6 -2 11 3 11 6 0 11 -6
11 -14z m868 -33 c-10 -2 -26 -2 -35 0 -10 3 -2 5 17 5 19 0 27 -2 18 -5z
m-960 -23 c3 -7 0 -10 -7 -6 -6 4 -11 2 -11 -4 0 -6 -4 -9 -10 -5 -12 7 -1 37
13 32 6 -2 13 -9 15 -17z m-148 -27 c14 -7 18 -12 10 -12 -13 -1 -13 -2 0 -11
13 -8 12 -10 -4 -10 -12 0 -16 5 -12 15 3 9 0 15 -9 15 -8 0 -19 10 -25 23 -9
18 -9 20 2 7 7 -9 24 -21 38 -27z m1943 25 c-2 -5 -3 -122 -3 -262 l0 -254
-45 -4 -44 -3 -3 263 c-2 145 -1 266 2 268 7 8 95 0 93 -8z m-1998 -47 c-3 -2
-11 1 -18 7 -8 7 -18 8 -22 4 -5 -4 -5 -1 -1 5 5 10 11 10 26 1 11 -7 17 -14
15 -17z m983 12 c-21 -2 -55 -2 -75 0 -21 2 -4 4 37 4 41 0 58 -2 38 -4z
m-818 -13 c0 -5 -2 -10 -4 -10 -3 0 -8 5 -11 10 -3 6 -1 10 4 10 6 0 11 -4 11
-10z m-255 -16 c11 -1 39 -6 62 -10 32 -5 40 -10 35 -22 -4 -11 -1 -14 11 -9
9 3 17 2 17 -3 0 -6 -9 -10 -20 -10 -11 0 -20 5 -20 11 0 6 -7 8 -16 5 -8 -3
-12 -2 -9 4 3 6 2 10 -4 10 -5 0 -12 -6 -14 -12 -4 -8 -6 -7 -6 3 -1 24 -29
31 -41 11 -9 -16 -11 -16 -24 1 -8 10 -27 22 -43 28 -24 7 -22 8 12 3 22 -3
49 -8 60 -10z m266 2 c48 -2 45 -16 -4 -16 -25 0 -49 5 -52 10 -4 6 -11 8 -16
5 -5 -4 -9 -1 -9 5 0 6 10 8 27 4 14 -4 39 -7 54 -8z m894 -5 c30 -12 -63 -29
-145 -27 -160 5 -183 6 -178 12 3 3 64 7 134 10 71 3 131 8 133 10 6 6 34 4
56 -5z m-821 -7 c23 -9 19 -19 -8 -20 -17 -1 -23 2 -19 12 6 16 6 16 27 8z
m231 -13 c-8 -14 -45 -14 -45 -1 0 5 6 7 14 4 8 -3 17 0 21 6 4 6 9 9 12 6 3
-2 2 -9 -2 -15z m225 7 c0 -8 -13 -10 -57 -11 -13 0 -23 -3 -23 -6 0 -4 -24
-5 -52 -3 -77 4 -78 5 -78 13 0 5 30 9 68 11 114 5 142 4 142 -4z m30 -4 c0
-8 -4 -12 -10 -9 -5 3 -10 10 -10 16 0 5 5 9 10 9 6 0 10 -7 10 -16z m-413 0
c-3 -3 -12 -4 -19 -1 -8 3 -5 6 6 6 11 1 17 -2 13 -5z m63 -5 c13 -9 12 -10
-2 -5 -10 3 -20 1 -23 -5 -7 -11 -25 -3 -25 12 0 12 31 11 50 -2z m-1140 -39
c14 -5 65 -18 115 -30 126 -30 121 -27 100 -50 -18 -20 -41 -28 -31 -11 6 9
-19 17 -184 57 -132 32 -124 29 -115 43 6 11 69 6 115 -9z m685 10 c3 -5 1
-10 -4 -10 -6 0 -11 5 -11 10 0 6 2 10 4 10 3 0 8 -4 11 -10z m-169 -15 c4 -8
1 -21 -5 -29 -9 -11 -6 -12 14 -8 15 2 25 0 25 -7 0 -6 7 -11 16 -11 11 0 14
6 9 23 l-7 22 17 -23 c13 -18 15 -29 7 -45 -8 -17 -11 -18 -11 -5 -1 9 -9 16
-18 16 -10 0 -26 3 -35 7 -12 5 -18 3 -18 -6 0 -11 -3 -11 -10 1 -8 12 -12 9
-22 -17 -7 -18 -18 -33 -25 -33 -7 0 -13 -5 -13 -11 0 -5 6 -7 13 -3 7 4 9 3
4 -2 -5 -5 -12 -8 -15 -7 -4 0 -15 -3 -24 -8 -28 -15 -22 -2 37 70 30 38 55
71 55 74 0 3 -12 8 -27 10 l-28 4 28 2 c16 0 30 -5 33 -14z m224 5 c0 -5 -4
-10 -10 -10 -5 0 -10 5 -10 10 0 6 5 10 10 10 6 0 10 -4 10 -10z m40 -10 c8
-5 11 -10 5 -10 -5 0 -17 5 -25 10 -8 5 -10 10 -5 10 6 0 17 -5 25 -10z m163
-5 c60 1 111 -3 113 -7 3 -5 11 -5 17 -1 18 12 137 13 137 2 0 -6 7 -6 19 1
26 13 32 13 29 -3 -5 -20 37 -54 63 -51 13 1 28 3 33 3 4 1 6 8 2 16 -4 11 1
15 19 15 14 0 25 -5 25 -11 0 -5 -4 -7 -10 -4 -5 3 -10 1 -10 -5 0 -7 7 -9 16
-6 9 3 20 6 26 6 7 0 6 5 -1 14 -16 19 -66 27 -96 16 -25 -10 -55 -4 -55 10 0
4 38 7 85 6 47 0 85 2 85 6 0 4 7 5 16 1 23 -9 204 -9 204 0 0 4 7 7 16 7 8 0
13 -4 10 -8 -3 -5 1 -9 9 -9 8 0 12 4 9 8 -3 5 15 7 38 5 24 -2 53 -4 66 -5
12 -1 22 -4 22 -8 0 -10 -18 -11 -209 -12 -134 -1 -155 -3 -167 -18 -9 -13 -9
-22 -2 -30 8 -10 5 -13 -13 -15 -31 -1 -37 -3 -79 -13 -19 -5 -43 -8 -53 -6
-10 1 -25 -3 -33 -9 -7 -7 -25 -10 -39 -8 -14 3 -22 1 -18 -5 3 -5 0 -7 -8 -5
-8 3 -36 -1 -63 -9 -26 -8 -54 -12 -61 -9 -7 2 -16 -2 -19 -10 -3 -8 -13 -14
-23 -13 -16 0 -16 1 2 9 19 8 18 9 -5 11 -24 2 -24 2 -2 6 12 2 22 8 22 12 0
3 8 7 18 8 66 3 132 20 132 34 0 6 5 7 10 4 6 -3 10 -1 10 5 0 6 10 8 25 4 31
-8 32 -1 3 26 -26 24 -43 26 -34 5 3 -8 1 -15 -3 -15 -5 0 -18 -3 -28 -6 -17
-5 -17 -5 1 10 10 8 16 21 13 29 -4 10 -21 11 -78 6 -41 -4 -75 -4 -76 0 -2 3
-57 5 -123 4 -66 -1 -120 2 -120 6 0 13 13 22 19 14 3 -5 55 -8 114 -8z m-502
-38 c-12 -19 -28 -41 -37 -48 -9 -7 -19 -22 -23 -33 -4 -11 -10 -15 -13 -10
-3 5 15 37 40 71 49 66 69 77 33 20z m182 21 c4 -9 8 -10 14 -3 4 6 23 8 43 4
l35 -6 -38 -2 c-34 -1 -38 -3 -32 -22 5 -16 2 -22 -15 -26 -16 -4 -18 -8 -8
-14 10 -7 9 -9 -4 -9 -23 0 -23 26 -1 38 16 9 16 11 0 27 -19 19 -21 25 -8 25
5 0 12 -6 14 -12z m160 -8 c-11 -10 -63 -22 -63 -15 0 7 39 22 57 22 8 0 10
-4 6 -7z m1054 -16 c-3 -3 -12 -4 -19 -1 -8 3 -5 6 6 6 11 1 17 -2 13 -5z
m-1575 -30 c-2 -10 -8 -21 -13 -22 -5 -2 -7 -8 -3 -13 3 -5 -5 -9 -17 -9 l-22
0 22 24 c13 14 20 30 16 37 -5 7 -3 10 6 7 8 -3 12 -14 11 -24z m422 12 c-4
-11 0 -13 17 -9 15 4 20 3 15 -5 -4 -6 -23 -11 -43 -10 l-36 1 23 19 c27 22
31 22 24 4z m180 -8 c-5 -8 -1 -9 12 -4 14 5 16 4 7 -5 -13 -13 -37 -3 -28 12
4 5 8 9 11 9 3 0 2 -5 -2 -12z m276 -3 c-19 -7 -66 -15 -105 -18 -38 -3 -60
-3 -47 0 12 2 20 9 16 14 -3 5 9 8 30 5 20 -2 38 -1 40 2 2 4 26 8 53 8 l48 1
-35 -12z m-640 -9 c0 -3 -4 -8 -10 -11 -5 -3 -10 -1 -10 4 0 6 5 11 10 11 6 0
10 -2 10 -4z m1310 -5 c0 -6 -8 -10 -17 -10 -10 0 -49 -3 -88 -7 -38 -3 -76
-6 -82 -7 -7 0 -13 -4 -13 -8 0 -4 -8 -8 -17 -8 -73 -2 -119 -7 -124 -14 -3
-5 -17 -10 -30 -11 -39 -5 -283 -56 -299 -63 -8 -3 -28 -7 -45 -9 -16 -1 -79
-12 -139 -23 -59 -11 -112 -18 -117 -15 -5 3 -9 1 -9 -3 0 -5 -10 -9 -21 -10
-15 -1 -19 1 -12 8 6 6 28 12 51 14 22 2 69 11 104 20 35 10 77 19 93 20 17 2
77 15 134 29 57 15 121 27 142 28 21 1 36 5 32 11 -3 5 3 6 14 3 11 -4 33 -1
49 5 16 7 49 14 74 16 25 2 52 7 60 10 22 9 41 13 78 17 19 2 36 7 39 10 10
10 143 7 143 -3z m-1646 -22 c-4 -8 0 -9 15 -4 11 3 21 2 21 -3 0 -9 -39 -17
-225 -47 -98 -16 -149 -10 -151 18 -2 13 -1 14 3 2 4 -15 33 -22 33 -7 0 4 30
8 68 10 50 2 214 30 240 41 2 0 0 -4 -4 -10z m753 -5 c-3 -3 -12 -4 -19 -1 -8
3 -5 6 6 6 11 1 17 -2 13 -5z m768 -4 c-3 -5 -12 -10 -18 -10 -7 0 -6 4 3 10
19 12 23 12 15 0z m-1344 -33 c-10 -9 -11 -8 -5 6 3 10 9 15 12 12 3 -3 0 -11
-7 -18z m439 0 c0 -8 -3 -8 -9 1 -6 11 -10 10 -15 -4 -6 -16 -8 -16 -16 -4 -7
11 -4 17 8 21 20 8 32 2 32 -14z m1047 17 c-3 -3 -12 -4 -19 -1 -8 3 -5 6 6 6
11 1 17 -2 13 -5z m-1587 -8 c0 -3 -4 -8 -10 -11 -5 -3 -10 -1 -10 4 0 6 5 11
10 11 6 0 10 -2 10 -4z m712 -13 c-11 -18 -19 -20 -107 -29 -33 -3 -67 -10
-77 -15 -14 -7 -16 -6 -12 5 3 9 9 15 12 14 4 -1 30 2 57 6 28 5 63 10 78 11
16 2 34 8 40 14 16 16 19 14 9 -6z m-750 -10 c-7 -11 -45 -24 -118 -40 -144
-31 -218 -39 -212 -21 4 10 241 65 331 77 4 1 4 -7 -1 -16z m498 -4 c0 -5 -4
-9 -10 -9 -5 0 -10 7 -10 16 0 8 5 12 10 9 6 -3 10 -10 10 -16z m310 17 c0 -2
-9 -6 -20 -9 -11 -3 -20 -1 -20 4 0 5 9 9 20 9 11 0 20 -2 20 -4z m-576 -30
c-5 -14 -34 -31 -34 -20 0 8 24 33 32 34 4 0 5 -6 2 -14z m106 10 c0 -3 -4 -8
-10 -11 -5 -3 -10 -1 -10 4 0 6 5 11 10 11 6 0 10 -2 10 -4z m115 -6 c-11 -5
-27 -9 -35 -9 -9 0 -8 4 5 9 11 5 27 9 35 9 9 0 8 -4 -5 -9z m944 6 c-2 -2
-20 -6 -39 -10 -25 -4 -31 -3 -20 4 14 9 69 15 59 6z m-1031 -33 c-23 -27 -30
-53 -14 -53 8 0 22 -3 32 -7 12 -4 15 -3 10 5 -4 7 -2 12 3 12 6 0 11 -7 11
-15 0 -11 -10 -14 -36 -12 -30 2 -36 6 -41 30 -3 16 -9 25 -12 20 -7 -9 -31
-15 -31 -8 0 5 78 44 89 45 2 0 -3 -8 -11 -17z m-71 1 c-3 -3 -12 -4 -19 -1
-8 3 -5 6 6 6 11 1 17 -2 13 -5z m137 -16 c-3 -5 -9 -6 -14 -3 -5 3 -11 1 -15
-4 -3 -6 -13 -7 -22 -4 -12 5 -14 3 -8 -7 5 -9 4 -11 -3 -6 -20 12 -13 25 16
28 45 6 51 5 46 -4z m126 -13 c0 -8 -4 -15 -8 -15 -5 0 -9 7 -9 15 0 8 4 15 9
15 4 0 8 -7 8 -15z m880 5 c0 -5 -4 -10 -10 -10 -5 0 -10 5 -10 10 0 6 5 10
10 10 6 0 10 -4 10 -10z m160 1 c0 -5 -9 -7 -20 -4 -11 3 -20 7 -20 9 0 2 9 4
20 4 11 0 20 -4 20 -9z m-1532 -7 c12 -4 22 -12 22 -18 0 -22 -44 -35 -135
-40 -49 -2 -110 -9 -135 -15 -88 -22 -123 -25 -118 -11 2 8 41 22 88 32 46 10
86 22 89 26 19 28 125 43 189 26z m419 -16 c-3 -8 -6 -5 -6 6 -1 11 2 17 5 13
3 -3 4 -12 1 -19z m540 -4 c-3 -3 -12 -4 -19 -1 -8 3 -5 6 6 6 11 1 17 -2 13
-5z m503 -14 c22 -7 21 -8 -12 -9 -47 -1 -118 -31 -118 -50 0 -10 -3 -11 -14
-2 -11 9 -25 10 -55 2 -23 -6 -58 -15 -80 -21 -46 -12 -81 -13 -81 -2 0 6 124
38 228 57 19 4 30 11 26 17 -4 7 -2 8 4 4 7 -4 12 -2 12 3 0 13 53 13 90 1z
m-1216 -7 c-5 -5 -12 -12 -16 -18 -4 -6 -8 -2 -8 8 0 9 7 17 17 17 9 0 12 -3
7 -7z m535 -53 c-15 -10 -41 -1 -34 10 3 5 14 6 26 3 15 -4 17 -8 8 -13z m695
14 c9 -3 16 -11 16 -16 0 -6 -6 -5 -15 2 -9 8 -27 10 -46 6 -18 -3 -28 -2 -24
4 7 11 45 13 69 4z m-967 -29 c-4 -8 -13 -15 -22 -15 -13 0 -12 3 2 20 19 22
29 19 20 -5z m130 19 c-3 -3 -12 -4 -19 -1 -8 3 -5 6 6 6 11 1 17 -2 13 -5z
m88 -13 c-16 -15 -158 -41 -144 -26 7 7 111 34 134 34 11 1 15 -3 10 -8z
m-302 -8 c-7 -2 -19 -2 -25 0 -7 3 -2 5 12 5 14 0 19 -2 13 -5z m-46 -9 c-3
-3 -12 -4 -19 -1 -8 3 -5 6 6 6 11 1 17 -2 13 -5z m713 -4 c0 -5 -3 -10 -7
-11 -5 0 -15 -2 -23 -4 -8 -2 -62 -13 -118 -24 -57 -12 -116 -24 -130 -27 -15
-4 -24 -4 -21 0 7 7 93 33 139 41 14 3 48 12 75 19 61 18 85 19 85 6z m-200
-10 c-20 -13 -33 -13 -25 0 3 6 14 10 23 10 15 0 15 -2 2 -10z m-383 -16 c-3
-3 -12 -4 -19 -1 -8 3 -5 6 6 6 11 1 17 -2 13 -5z m1252 -48 c9 -11 9 -16 0
-21 -10 -7 -28 10 -29 28 0 12 17 8 29 -7z m-1014 -6 c-3 -5 -14 -10 -23 -10
-15 0 -15 2 -2 10 20 13 33 13 25 0z m1887 -20 c4 -27 1 -31 -31 -40 -44 -12
-55 -4 -13 11 18 6 29 15 26 20 -6 10 1 39 10 39 2 0 6 -14 8 -30z m212 14 c4
-10 1 -14 -6 -12 -15 5 -23 28 -10 28 5 0 13 -7 16 -16z m-2144 2 c0 -6 -103
-36 -121 -36 -25 0 2 13 53 26 62 15 68 15 68 10z m1520 -6 c0 -5 -2 -10 -4
-10 -2 0 -12 -3 -22 -7 -16 -6 -17 -5 -4 10 17 19 30 22 30 7z m480 2 c0 -4
-9 -8 -20 -9 -11 -1 -18 2 -15 8 7 11 35 12 35 1z m90 -12 c0 -5 -9 -10 -21
-10 -11 0 -17 5 -14 10 3 6 13 10 21 10 8 0 14 -4 14 -10z m-1730 -20 c0 -5
-10 -11 -22 -12 -13 -1 -30 -2 -38 -3 -8 0 -21 -5 -29 -10 -20 -12 -91 -24
-91 -15 0 4 19 10 42 14 23 4 48 12 55 18 7 6 13 8 13 5 0 -3 12 -2 28 3 37
11 42 11 42 0z m365 -350 c13 -5 14 -9 5 -9 -8 0 -24 4 -35 9 -13 5 -14 9 -5
9 8 0 24 -4 35 -9z"/>
<path d="M3485 1958 c-10 -28 -10 -278 0 -278 6 -1 -21 -11 -58 -23 -37 -13
-65 -26 -61 -30 4 -4 2 -7 -5 -7 -9 0 -9 -5 -1 -20 9 -18 8 -20 -15 -20 -20 0
-25 5 -25 25 0 14 -5 25 -10 25 -11 0 -15 -8 -24 -51 -5 -24 -4 -25 27 -21 17
2 55 5 82 6 102 5 105 5 105 24 0 14 2 15 10 2 8 -13 10 -12 11 5 1 11 1 23 0
28 0 4 4 7 10 7 5 0 8 4 5 9 -3 4 6 7 20 5 26 -2 82 13 98 26 7 7 11 166 7
273 l-1 27 -85 0 c-60 0 -87 -4 -90 -12z"/>
<path d="M3729 1958 c-1 -7 -1 -16 0 -20 0 -4 3 -33 5 -65 11 -143 23 -206 36
-198 6 3 10 1 10 -5 0 -7 7 -10 15 -7 8 4 17 2 20 -2 3 -5 29 -15 57 -21 29
-7 60 -16 68 -21 24 -12 19 -56 -7 -70 -13 -7 -21 -19 -19 -26 7 -18 -26 -33
-73 -33 -36 0 -41 -3 -41 -24 0 -25 -7 -23 185 -42 51 -5 152 -43 189 -69 57
-42 41 -148 -26 -176 -16 -6 -26 -14 -23 -17 8 -9 78 -32 96 -32 8 0 30 -14
47 -31 28 -28 32 -38 32 -86 0 -32 -6 -63 -16 -78 -38 -58 -179 -105 -334
-112 -47 -2 -100 -6 -118 -9 l-33 -5 2 -57 c2 -76 -5 -95 -42 -109 -29 -11
-30 -13 -26 -66 2 -29 7 -60 12 -67 6 -10 4 -12 -9 -7 -10 4 -20 7 -22 7 -2 0
-4 36 -4 79 0 67 3 80 18 84 9 3 -5 5 -33 5 -27 0 -42 -2 -32 -5 13 -3 17 -15
17 -47 0 -91 11 -137 36 -147 13 -4 24 -14 24 -21 0 -9 3 -8 10 2 8 13 10 12
10 -4 0 -13 5 -17 20 -13 11 3 23 1 26 -4 3 -5 15 -9 27 -8 21 0 21 1 2 9 -16
7 -12 9 20 9 31 1 37 4 25 12 -12 9 -11 10 5 4 99 -35 110 -35 223 1 59 19
112 38 118 42 9 5 9 22 1 63 -10 54 -11 57 -57 76 -43 18 -47 23 -48 55 -1 25
4 38 14 42 11 4 15 2 11 -8 -9 -22 14 -44 61 -56 l42 -11 0 -50 c0 -28 5 -59
10 -70 16 -30 -3 -54 -62 -77 l-53 -21 38 0 c22 -1 54 6 73 15 39 19 40 27 22
136 -11 59 -10 72 1 76 26 9 51 41 44 59 -5 17 -5 17 12 1 12 -11 15 -22 10
-35 -5 -10 -7 -23 -6 -30 1 -6 -7 -18 -19 -26 -18 -13 -19 -18 -9 -77 16 -90
0 -121 -72 -139 -30 -8 -61 -18 -69 -22 -16 -9 -89 -31 -240 -74 -158 -46
-292 -85 -360 -105 -36 -11 -75 -21 -87 -23 -34 -5 -53 -27 -53 -62 l0 -32 77
-7 c105 -8 205 -7 221 3 8 5 13 22 11 42 -5 60 -39 46 426 174 406 112 399
109 385 153 -5 15 -11 38 -13 52 -1 14 -8 35 -15 47 -7 12 -12 29 -12 37 0 18
-30 36 -58 36 -22 0 -45 23 -34 34 4 4 7 17 7 29 0 11 6 22 13 24 7 3 12 -4
12 -14 0 -26 40 -59 68 -55 16 2 22 -2 22 -14 0 -36 43 -193 51 -188 13 8 11
32 -7 99 -23 89 -25 105 -14 106 42 5 64 24 57 48 -3 15 -1 21 6 18 7 -2 11
-19 9 -38 -2 -31 -11 -43 -37 -52 -6 -2 1 -46 16 -108 22 -88 24 -106 13 -120
-8 -9 -11 -18 -8 -22 11 -11 -97 -50 -167 -61 -15 -2 -35 -9 -45 -15 -11 -5
-46 -17 -79 -25 -33 -8 -112 -29 -175 -46 -63 -18 -146 -40 -185 -50 -38 -11
-80 -22 -92 -26 -13 -3 -23 -2 -23 2 0 5 39 20 86 34 47 14 78 26 69 28 -8 2
-44 -5 -78 -16 -34 -11 -74 -22 -89 -26 -16 -4 -28 -11 -28 -16 0 -5 8 -7 18
-4 13 4 12 1 -5 -14 -25 -22 -30 -48 -10 -53 6 -2 82 -2 167 1 l155 5 3 27 c2
15 11 29 20 32 99 28 343 99 362 106 14 5 79 25 145 44 199 57 260 80 258 96
-4 39 -29 120 -36 120 -4 0 -6 4 -2 9 3 5 -2 28 -11 50 -13 33 -22 42 -49 47
-33 6 -81 44 -56 44 7 0 10 7 6 19 -3 11 1 24 11 32 13 11 15 11 13 -2 -3 -21
11 -49 26 -49 7 0 16 -7 19 -16 5 -13 9 -14 20 -5 17 15 17 15 50 -86 25 -76
40 -102 52 -91 2 3 -9 43 -25 90 l-29 86 39 10 c41 10 50 3 24 -18 -20 -17
-19 -35 8 -116 36 -106 41 -139 21 -169 -9 -13 -20 -23 -24 -20 -5 3 -11 1
-14 -4 -3 -5 -32 -17 -64 -27 -31 -9 -61 -21 -67 -25 -5 -4 -38 -13 -73 -19
-34 -7 -65 -17 -68 -21 -3 -5 -18 -9 -33 -9 -16 0 -48 -8 -72 -19 -54 -23
-109 -34 -109 -22 0 5 14 12 31 16 17 4 28 9 25 13 -3 3 -36 -4 -74 -16 -37
-12 -103 -33 -147 -46 -105 -32 -107 -50 -5 -54 41 -2 107 0 147 3 63 6 72 9
75 28 3 19 30 30 208 85 259 79 515 160 560 176 30 11 35 17 33 41 -1 16 -6
31 -11 34 -7 5 -33 60 -38 81 -12 49 -32 72 -71 82 -40 10 -80 38 -54 38 7 0
9 9 5 25 -7 29 12 35 21 6 3 -11 13 -22 21 -25 8 -3 12 -10 9 -16 -3 -5 3 -10
14 -10 10 0 21 5 23 11 5 16 48 1 48 -16 0 -8 6 -29 14 -47 8 -18 19 -46 25
-62 8 -20 15 -26 22 -19 7 7 3 31 -15 75 -14 36 -26 68 -26 71 0 4 11 7 25 7
32 0 34 34 4 50 -28 16 -18 23 15 11 32 -13 33 -30 4 -66 -24 -30 -22 -42 30
-155 44 -97 44 -103 5 -136 -19 -16 -47 -33 -61 -37 -61 -19 -92 -24 -86 -16
3 5 -2 9 -11 9 -9 0 -14 -4 -10 -9 7 -13 -27 -31 -57 -30 -19 0 -17 3 12 14
42 16 26 20 -18 4 -20 -7 -29 -15 -25 -25 3 -9 -2 -14 -15 -14 -11 0 -28 -3
-38 -7 -12 -4 -15 -3 -10 6 6 9 0 10 -21 5 -44 -11 -64 -26 -23 -18 19 3 32 3
28 -1 -7 -8 -68 -24 -113 -30 -24 -3 -22 -1 10 10 22 7 33 14 24 14 -26 1 -79
-20 -74 -29 3 -5 1 -11 -5 -15 -5 -3 -10 -1 -10 4 0 6 -5 11 -11 11 -5 0 -8
-4 -5 -9 3 -4 -6 -13 -19 -19 -13 -6 -27 -7 -30 -3 -5 10 -85 -7 -85 -18 0 -4
-8 -7 -17 -8 -10 0 -43 -7 -73 -16 -41 -11 -50 -17 -37 -22 10 -4 23 -3 29 3
6 6 19 7 32 2 27 -10 225 6 321 25 39 8 120 17 180 19 138 4 307 31 394 61
113 40 356 132 381 145 17 8 21 42 5 52 -5 4 -10 13 -10 20 -1 7 -6 12 -13 11
-6 -2 -18 12 -25 30 -8 17 -26 49 -40 71 -15 21 -25 41 -23 45 3 4 -5 8 -17 8
-12 1 -23 7 -25 13 -2 5 -8 7 -14 4 -5 -4 -20 -1 -31 4 -12 6 -38 16 -57 22
l-35 10 40 -6 c22 -4 46 -7 53 -7 6 0 12 -3 12 -7 0 -3 8 -6 18 -7 9 -1 32 -2
49 -4 18 -1 40 -10 49 -21 10 -10 21 -18 26 -18 16 0 7 22 -21 51 -29 28 -20
41 11 17 28 -23 158 -254 158 -281 0 -14 -119 -66 -243 -107 -143 -46 178 8
423 71 124 32 114 25 88 67 -12 20 -25 39 -28 42 -4 3 -13 16 -20 30 -7 13
-23 33 -35 42 -13 10 -26 30 -30 45 -5 21 -8 24 -16 12 -6 -10 -9 -11 -9 -1 0
7 -5 18 -10 25 -6 7 -18 21 -28 32 -20 24 -64 45 -92 45 -11 0 -20 4 -20 9 0
5 16 5 38 -1 75 -19 83 -20 81 -12 -4 23 3 23 24 -2 13 -15 29 -25 35 -23 18
6 -14 48 -45 60 -14 5 -24 12 -21 14 3 3 18 0 34 -6 22 -8 54 -50 133 -170 57
-87 106 -159 107 -159 8 0 160 53 172 59 9 5 5 17 -18 47 -71 89 -96 119 -112
135 -9 10 -13 21 -10 25 4 4 -1 4 -11 1 -11 -4 -16 -3 -12 3 3 6 1 10 -4 10
-6 0 -11 15 -11 33 0 18 -5 38 -12 45 -8 8 -9 15 -2 22 25 25 64 -11 165 -153
l104 -144 62 23 c91 34 189 80 196 91 3 5 -11 30 -31 55 -20 24 -46 57 -57 72
-44 61 -53 69 -100 81 -49 13 -49 14 -15 16 105 5 117 -1 195 -101 39 -50 74
-90 79 -90 13 0 136 81 136 89 0 3 -20 27 -43 52 -44 48 -68 60 -157 79 -80
17 -85 19 -73 31 8 8 45 3 127 -16 111 -26 117 -28 154 -71 l38 -44 41 38 c42
40 100 129 90 139 -4 3 -24 -2 -47 -11 -45 -18 -105 -20 -166 -6 -23 5 -59 12
-80 14 -21 3 -40 10 -42 16 -2 5 -10 10 -17 10 -7 0 -16 7 -19 16 -3 9 -2 12
4 9 6 -4 61 -17 122 -30 l112 -24 78 30 78 30 0 39 c0 54 -15 89 -37 86 -11
-2 -17 -10 -15 -22 2 -16 -15 -25 -105 -54 -145 -47 -137 -46 -121 -21 7 12
22 24 33 27 78 25 123 46 119 58 -5 12 12 22 69 40 23 7 22 32 -4 49 -15 11
-30 12 -57 6 -20 -5 -64 -9 -97 -9 -33 0 -93 -9 -134 -20 -57 -15 -78 -17 -94
-8 -19 10 -12 14 58 34 52 15 107 24 157 24 42 0 89 5 104 10 26 10 26 11 9
30 -22 25 -37 25 -127 0 -56 -15 -111 -20 -235 -22 -97 -1 -159 -6 -156 -12 3
-5 1 -6 -5 -2 -7 4 -12 11 -12 15 0 14 146 33 228 30 73 -3 214 22 235 41 5 4
-12 22 -37 40 l-47 31 -263 -53 c-224 -46 -262 -52 -259 -38 3 12 28 21 91 33
48 10 107 22 132 27 25 6 88 18 140 26 124 21 130 25 76 52 -36 18 -49 20 -72
12 -33 -13 -447 -95 -579 -116 -22 -3 -43 -8 -47 -10 -5 -3 -8 2 -8 11 0 11 5
15 15 12 8 -4 17 -3 19 2 3 4 19 7 35 6 17 -1 28 1 26 5 -2 4 48 17 113 29 64
13 172 34 238 47 67 13 124 24 126 24 3 0 8 9 11 19 7 29 -95 66 -155 55 -24
-4 -47 -7 -51 -6 -5 1 -26 4 -47 5 -68 5 -80 38 -18 52 31 7 27 9 -67 40 -145
48 -150 47 -82 -26 81 -87 107 -120 107 -133 0 -9 -31 -19 -97 -31 -54 -9
-129 -23 -167 -30 -37 -7 -74 -11 -82 -8 -8 3 -14 -1 -14 -8 0 -11 -2 -11 -10
1 -13 20 2 27 85 40 149 24 215 41 207 55 -4 7 -43 56 -87 108 l-80 95 -110
26 c-60 15 -128 31 -150 36 -48 12 -187 39 -224 44 -14 3 -48 7 -76 11 -27 4
-63 11 -80 15 -16 5 -54 11 -84 15 -30 3 -64 8 -75 10 -12 2 -39 6 -61 9 -22
3 -60 8 -85 12 -40 6 -43 5 -32 -8 7 -9 60 -24 135 -37 67 -13 187 -35 267
-51 80 -15 166 -31 192 -35 26 -4 54 -12 61 -19 26 -20 167 -208 167 -221 0
-15 -22 -20 -120 -31 -100 -11 -133 -11 -157 -3 -17 6 -23 5 -23 -5 0 -8 -7
-17 -16 -20 -26 -10 -26 -7 1 21 30 33 31 43 6 43 -42 0 -82 -14 -92 -31 -7
-15 -6 -17 6 -13 9 4 15 0 15 -9 0 -9 3 -23 7 -32 4 -11 -5 -7 -24 11 -26 24
-29 30 -17 42 20 20 18 21 -21 18 -19 -1 -36 2 -38 8 -3 6 -8 8 -12 3 -5 -4
-4 -12 3 -19 8 -8 7 -17 -4 -33 -20 -30 -9 -56 19 -46 12 5 28 6 35 4 6 -3 12
0 12 6 0 6 -7 11 -15 11 -8 0 -15 4 -15 9 0 5 -3 16 -6 25 -12 30 13 16 31
-18 11 -19 24 -32 29 -29 8 4 8 2 1 -5 -5 -6 -31 -12 -57 -14 -26 -2 -51 -7
-54 -11 -11 -10 -24 -8 -24 3 0 6 7 10 15 10 8 0 15 4 15 9 0 5 -8 7 -17 5
-12 -3 -22 4 -29 20 -11 23 -9 26 15 35 15 5 19 10 10 10 -20 1 -30 34 -17 52
8 11 9 11 5 -1 -2 -8 4 -23 13 -33 17 -17 18 -17 22 1 4 15 23 20 103 31 95
12 162 29 122 30 -9 1 -16 4 -16 9 3 18 -2 30 -23 52 -13 14 -23 27 -23 30 0
17 -47 51 -76 56 -81 12 -98 14 -169 28 -41 8 -92 15 -113 15 l-39 -1 29 -15
c15 -8 62 -21 103 -30 89 -18 109 -29 134 -75 25 -47 17 -64 -35 -71 -23 -3
-45 -11 -49 -17 -9 -15 -67 -23 -75 -10 -8 12 -45 14 -45 1 0 -5 10 -7 23 -4
20 4 20 3 4 -7 -15 -10 -23 -8 -41 9 -13 13 -36 21 -56 21 -50 0 -30 10 31 15
83 8 195 27 181 32 -6 3 -10 8 -7 13 3 5 -3 16 -12 26 -10 10 -18 20 -18 23 0
3 -4 6 -10 7 -5 0 -19 3 -30 7 -35 12 -134 16 -140 6 -4 -5 -11 -7 -16 -3 -9
5 -59 10 -149 15 -39 2 -154 -5 -142 -8 6 -3 10 -8 7 -13 -3 -5 -1 -20 5 -35
8 -22 6 -30 -17 -51 -14 -13 -32 -24 -40 -24 -8 0 -11 -4 -8 -10 3 -5 -3 -10
-13 -10 -11 0 -22 -7 -26 -15 -7 -19 -40 -19 -59 0 -10 10 -17 11 -19 4 -2 -6
-22 -13 -45 -16 -36 -4 -41 -2 -45 19 -2 13 -3 29 0 36 6 19 22 14 22 -8 0
-18 6 -22 26 -19 4 0 11 -5 15 -13 7 -11 9 -11 9 1 0 8 -8 20 -17 27 -10 7
-14 16 -10 20 4 5 12 3 16 -4 4 -7 12 -12 17 -11 5 1 20 1 33 0 20 -1 21 -3
11 -16 -10 -13 -9 -15 8 -15 12 0 27 8 34 18 7 10 22 22 33 27 18 8 17 9 -8
13 -16 2 -35 -2 -43 -9 -8 -6 -14 -8 -14 -4 0 12 33 34 53 35 21 0 21 1 2 47
-20 48 -13 63 30 63 19 0 35 5 35 11 0 7 -10 9 -24 5 -16 -4 -30 0 -40 10 -20
20 -20 34 -1 34 27 0 27 26 0 82 l-26 56 -91 7 c-50 4 -97 9 -104 12 -21 8
-17 -21 8 -64 26 -45 47 -63 65 -56 17 7 29 -25 15 -39 -12 -12 -109 -20 -142
-11 -26 7 -26 43 0 50 12 3 19 8 18 12 -2 3 -12 29 -22 57 l-20 51 -111 11
c-62 7 -151 12 -199 12 l-88 0 7 -32 c13 -56 32 -103 41 -101 5 1 16 -4 24
-11 8 -8 29 -16 45 -19 65 -11 365 -76 373 -81 5 -3 15 -24 22 -47 11 -33 12
-43 2 -47 -7 -2 -9 -9 -6 -14 4 -7 2 -8 -5 -4 -6 4 -18 0 -27 -9 -12 -11 -20
-13 -27 -6 -7 7 -14 6 -21 -3 -17 -22 -114 -46 -120 -31 -2 7 7 18 20 24 33
14 57 14 48 -1 -4 -7 -3 -8 4 -4 17 10 2 36 -22 37 -12 0 -1 7 26 16 27 9 45
20 41 26 -4 6 0 8 10 4 10 -3 17 -2 17 3 0 15 -64 52 -68 40 -2 -6 -8 -10 -13
-10 -6 0 -7 5 -3 12 4 7 3 8 -5 4 -6 -4 -18 -2 -26 4 -8 7 -34 13 -58 15 -24
1 -50 5 -58 9 -8 4 -5 0 6 -9 11 -9 28 -14 37 -11 10 2 20 0 23 -5 3 -4 12 -6
20 -3 17 7 40 -32 25 -41 -6 -4 -8 -11 -5 -16 4 -5 -1 -10 -9 -10 -37 -3 -88
-27 -82 -38 4 -5 -9 -6 -29 -1 -20 4 -35 4 -35 -1 0 -5 9 -9 20 -9 11 0 20 -7
20 -15 0 -18 16 -20 23 -2 3 6 6 2 6 -11 1 -20 3 -21 21 -10 19 12 19 14 4 25
-15 11 -13 13 10 19 14 3 23 10 20 15 -3 5 2 6 12 2 15 -5 14 -7 -2 -16 -27
-14 -28 -15 -16 -30 17 -20 7 -51 -19 -58 -33 -9 -120 -9 -143 0 -17 7 -25 22
-28 57 -2 16 -48 4 -48 -13 0 -12 -3 -13 -13 -4 -9 7 -24 8 -45 2 -17 -5 -33
-7 -36 -3 -3 3 -6 -1 -6 -9 0 -11 -2 -11 -8 -1 -6 9 -13 8 -28 -7 -28 -25 -54
-32 -118 -32 -62 0 -97 14 -91 36 16 51 17 51 24 31 7 -19 17 -23 79 -33 25
-4 39 0 56 16 14 13 34 20 57 19 38 -1 79 16 79 34 0 6 -9 8 -22 4 -51 -15
-65 -17 -103 -16 -22 1 -48 1 -57 1 -13 0 -16 8 -14 33 2 30 0 32 -23 28 -21
-3 -23 -2 -11 8 13 10 12 11 -6 7 -12 -2 -32 4 -45 14 -13 10 -28 19 -34 19
-5 0 -3 -5 5 -10 11 -7 7 -10 -17 -10 -25 0 -33 4 -33 18 0 10 -5 23 -12 30
-8 8 -8 12 -1 12 6 0 13 10 16 22 7 26 -4 49 -12 25 -3 -9 -7 27 -8 79 -1 52
-5 99 -8 104 -10 16 -235 13 -236 -2z m437 -416 c-7 -7 -46 9 -46 18 0 5 11 4
25 -2 14 -6 23 -13 21 -16z m1189 -27 c0 -10 6 -20 14 -23 8 -3 11 0 7 6 -3 6
-1 14 6 18 7 4 9 3 5 -1 -4 -5 3 -14 15 -21 22 -12 21 -12 -13 -10 -20 2 -41
6 -47 10 -8 4 -10 2 -6 -8 4 -11 -1 -14 -20 -12 -14 2 -26 -2 -27 -8 0 -6 -4
-2 -9 9 -5 11 -9 14 -9 8 -1 -7 -10 -13 -21 -13 -11 0 -20 -6 -20 -12 0 -9 -4
-8 -10 2 -5 8 -10 10 -10 4 0 -6 -15 -11 -32 -12 -52 -2 -98 -13 -92 -23 3 -5
10 -7 15 -4 5 3 6 -1 3 -9 -3 -9 -1 -16 6 -16 6 0 9 -4 6 -8 -2 -4 3 -8 13 -8
13 0 16 7 13 26 -4 22 -3 23 9 8 11 -13 19 -14 39 -6 14 6 32 10 42 9 9 -1 19
2 22 7 7 12 73 -1 89 -17 8 -8 7 -11 -2 -11 -7 0 -9 -4 -6 -10 3 -5 -1 -10 -9
-10 -19 0 -21 -16 -3 -23 6 -3 2 -6 -10 -6 -12 -1 -25 -6 -29 -13 -5 -8 0 -9
17 -5 13 4 42 10 64 14 32 5 35 8 20 14 -17 7 -18 8 -2 8 9 1 17 8 17 17 0 11
-6 15 -19 11 -14 -3 -21 2 -26 20 -3 13 -16 28 -28 33 -18 7 -13 9 23 8 25 0
37 -2 28 -5 -10 -2 -18 -11 -18 -20 0 -10 6 -13 16 -9 8 3 12 2 9 -4 -7 -12 5
-13 22 -2 8 5 9 13 3 22 -13 20 -12 27 3 27 6 0 32 3 57 7 36 5 40 4 21 -4
-14 -6 -34 -12 -45 -14 -25 -4 -32 -22 -11 -29 8 -4 15 -3 15 2 0 4 7 8 15 8
8 0 15 -4 15 -9 0 -4 -7 -9 -15 -9 -8 -1 -19 -3 -25 -4 -5 -1 -14 -3 -19 -4
-4 0 -6 -12 -4 -25 5 -22 9 -24 44 -21 21 2 41 0 44 -5 6 -9 -24 -17 -80 -19
-41 -2 -236 -39 -244 -46 -2 -3 2 -11 8 -19 9 -11 9 -16 0 -21 -8 -6 -8 -10 2
-16 7 -4 18 -4 24 0 5 5 20 7 32 6 12 -1 20 2 17 7 -3 4 0 16 6 25 9 16 10 15
8 -7 -3 -21 1 -25 25 -24 15 1 27 -3 27 -8 0 -5 7 -5 16 0 17 9 64 4 64 -7 0
-10 -112 -8 -127 2 -7 5 -13 4 -13 -1 0 -13 -90 -20 -90 -7 0 5 -7 2 -14 -7
-15 -20 -43 -23 -66 -8 -11 7 -5 10 23 10 27 0 37 4 34 13 -2 6 -1 24 3 38 7
22 5 26 -11 25 -11 -1 -24 -8 -29 -16 -8 -13 -10 -12 -10 3 0 9 -4 17 -10 17
-5 0 -10 -7 -10 -15 0 -10 -9 -15 -27 -14 -18 1 -21 3 -10 6 10 2 16 12 15 21
-2 12 5 17 25 17 16 1 32 7 36 14 9 14 75 20 107 8 21 -7 65 16 52 28 -3 4
-25 8 -48 9 -23 1 -45 8 -50 16 -8 13 -11 13 -22 1 -10 -10 -10 -12 0 -7 6 4
12 2 12 -3 0 -6 -11 -11 -25 -11 -14 0 -25 -4 -25 -10 0 -6 -9 -6 -22 -1 -15
5 -22 15 -20 28 4 26 -29 55 -48 42 -12 -7 -11 -10 8 -15 41 -11 23 -24 -25
-18 -70 10 -78 10 -80 2 -2 -5 -2 -7 0 -6 1 1 12 -4 25 -11 19 -10 21 -15 11
-33 -9 -16 -8 -22 2 -29 24 -15 30 -10 25 21 -2 17 0 30 5 30 5 0 9 -4 9 -10
0 -18 30 -11 31 8 1 16 2 16 6 0 2 -10 11 -18 19 -18 8 0 14 -4 14 -9 0 -5 -8
-8 -17 -7 -10 0 -18 -6 -18 -14 0 -8 -10 -19 -22 -25 -13 -5 -23 -13 -23 -16
0 -13 45 -36 68 -34 12 1 22 -2 22 -7 0 -4 -9 -8 -19 -8 -18 0 -19 -4 -10 -28
10 -28 12 -29 62 -24 29 2 57 9 63 14 7 5 14 4 17 -4 3 -10 44 -13 166 -13
149 0 160 -1 155 -17 -3 -12 0 -18 10 -18 9 0 16 6 16 14 0 14 21 26 46 26 12
0 13 -8 8 -37 -6 -30 -4 -35 8 -30 20 7 98 -13 98 -25 0 -6 7 -7 16 -4 11 4
15 2 11 -6 -3 -9 10 -14 45 -15 27 -1 82 -9 121 -18 40 -9 81 -18 91 -21 11
-2 24 -8 29 -13 6 -6 -16 -4 -48 4 -32 7 -64 11 -72 8 -7 -3 -21 -2 -30 2 -22
9 -30 11 -118 19 -38 4 -99 15 -135 26 -36 10 -85 22 -110 26 -25 4 -37 9 -27
12 18 4 22 19 9 39 -9 14 -229 15 -238 1 -3 -4 -16 -8 -30 -8 -14 0 -32 -7
-40 -15 -19 -18 -38 -20 -29 -2 4 6 -3 1 -14 -12 -16 -18 -21 -20 -21 -7 0 9
-7 16 -15 16 -8 0 -15 5 -15 11 0 6 8 8 19 4 12 -3 21 0 24 9 8 21 -8 29 -43
21 -37 -8 -42 -45 -7 -60 15 -7 21 -17 19 -32 -2 -13 2 -23 7 -23 6 0 11 7 11
15 0 8 5 15 10 15 6 0 10 -10 10 -21 0 -19 -4 -21 -30 -15 -16 3 -30 1 -30 -3
0 -5 14 -15 30 -23 17 -7 30 -17 30 -21 0 -5 4 -5 10 -2 6 3 7 -1 4 -9 -3 -9
-1 -16 4 -16 6 0 14 9 17 20 3 11 13 20 21 20 8 0 15 8 15 18 1 16 2 16 6 0 5
-20 18 -23 28 -7 5 7 11 5 18 -4 7 -8 26 -17 42 -20 17 -3 65 -14 108 -25 43
-11 98 -23 124 -27 25 -3 54 -10 64 -15 10 -6 34 -11 53 -12 20 -2 36 -6 36
-9 0 -3 11 -4 25 -1 14 2 31 0 38 -6 6 -5 38 -15 70 -22 31 -6 57 -14 57 -17
0 -6 -55 1 -100 12 -14 3 -43 8 -65 11 -22 3 -94 18 -160 34 -66 16 -144 32
-172 36 -30 4 -50 11 -47 16 4 6 -3 5 -15 -1 -14 -8 -21 -8 -21 -1 0 13 -37
13 -45 -1 -4 -6 2 -13 14 -16 12 -3 21 -9 21 -13 0 -5 9 -12 21 -15 16 -5 18
-10 9 -20 -9 -11 -8 -14 7 -14 18 0 58 -8 58 -12 0 -1 9 -3 20 -5 41 -7 118
-24 159 -35 22 -7 50 -13 61 -15 65 -9 303 -72 278 -73 -22 -1 -336 65 -363
76 -19 8 -34 11 -95 19 -27 3 -54 8 -59 11 -4 3 -12 -1 -17 -8 -6 -11 -13 -9
-31 8 -34 31 -68 39 -69 16 0 -16 -1 -16 -9 2 -5 11 -9 16 -9 11 -1 -5 -7 -4
-13 2 -9 7 -23 6 -45 -3 -36 -15 -36 -16 -27 -39 9 -24 37 -20 29 4 -5 14 -2
20 9 20 9 0 16 -4 16 -10 0 -14 53 -13 68 2 16 16 28 2 13 -16 -9 -10 -25 -13
-52 -10 -30 4 -39 1 -39 -11 0 -8 -6 -16 -12 -16 -7 -1 1 -4 17 -8 17 -4 32
-4 35 -1 3 4 19 11 35 17 23 7 51 4 120 -13 167 -42 184 -54 26 -20 -73 17
-106 15 -60 -2 34 -13 95 -32 116 -37 48 -9 175 -44 181 -49 10 -11 -18 -6
-121 20 -56 14 -109 27 -117 29 -8 1 -40 9 -70 17 -30 8 -81 16 -113 17 -79 3
-111 16 -104 41 3 11 1 23 -4 26 -5 3 -4 14 2 26 8 14 8 18 0 14 -6 -4 -19 -2
-30 4 -16 8 -19 18 -16 50 3 36 1 41 -21 46 -17 5 -22 10 -15 18 13 16 3 57
-18 75 -11 9 -13 15 -4 18 20 7 -15 53 -40 53 -20 0 -20 1 -5 16 15 15 15 18
-3 37 -21 22 -26 42 -8 31 6 -3 3 8 -5 25 -9 17 -23 31 -31 31 -8 0 -15 5 -15
10 0 6 5 10 10 10 9 0 -5 35 -20 50 -3 3 -6 11 -7 18 -2 6 -4 18 -5 25 -2 6
-7 15 -12 19 -10 7 -19 68 -10 68 4 0 13 -8 20 -17 13 -17 13 -17 14 0 0 12 8
17 29 17 33 0 51 -17 27 -26 -9 -3 -13 -10 -10 -15 3 -5 1 -9 -5 -9 -6 0 -8
-7 -5 -15 4 -8 10 -15 15 -15 5 0 9 7 9 15 0 8 5 15 10 15 6 0 10 9 10 20 0
24 15 26 24 4 4 -11 10 -13 19 -7 6 6 26 13 42 17 22 5 26 4 15 -4 -12 -8 -9
-10 13 -10 27 0 37 15 15 22 -7 3 -6 7 5 11 11 4 17 1 17 -7 0 -10 12 -12 43
-9 61 6 70 11 64 33 -3 13 0 20 9 20 8 0 11 -6 7 -16 -3 -9 0 -20 8 -25 17
-11 29 -11 28 -1 -1 4 2 17 6 30 9 26 30 24 30 -3z m-917 -54 l-3 -56 -45 0
-45 0 -3 57 c-3 62 2 67 66 60 l33 -4 -3 -57z m782 55 c0 -2 -9 -6 -20 -9 -11
-3 -20 -1 -20 4 0 5 9 9 20 9 11 0 20 -2 20 -4z m257 -13 c-9 -8 -47 -11 -47
-4 0 5 11 9 25 9 14 0 24 -2 22 -5z m-394 -10 c-7 -2 -21 -2 -30 0 -10 3 -4 5
12 5 17 0 24 -2 18 -5z m537 -12 c0 -16 -18 -22 -23 -9 -4 10 -7 10 -15 0 -5
-7 -17 -15 -27 -16 -10 -1 -19 -10 -21 -19 -2 -13 1 -14 17 -4 14 9 21 9 30 0
17 -17 3 -43 -23 -42 -16 1 -18 3 -6 6 16 4 34 33 20 33 -15 -1 -39 -26 -39
-40 0 -10 10 -15 29 -15 15 0 28 2 28 5 0 3 9 6 20 6 22 0 28 -15 8 -17 -104
-9 -100 -10 -96 22 4 23 1 29 -14 29 -11 0 -17 4 -13 10 3 5 13 6 23 3 9 -3
14 -3 10 2 -10 11 11 47 23 40 5 -4 9 -1 9 4 0 6 14 11 30 11 17 0 30 -4 30
-9z m209 -22 c-22 -13 -31 -11 -17 5 7 8 17 12 22 9 4 -3 2 -9 -5 -14z m-1119
-64 l0 -74 88 -3 87 -3 0 -35 0 -35 -87 -3 -88 -3 0 -167 c0 -119 4 -173 13
-185 8 -12 34 -19 87 -23 l76 -7 -4 -34 -4 -35 -98 4 c-157 5 -170 26 -170
278 l0 170 -35 0 c-34 0 -35 1 -35 40 0 39 1 40 35 40 l35 0 0 75 0 75 50 0
50 0 0 -75z m1000 30 c0 -8 -4 -15 -10 -15 -5 0 -10 7 -10 15 0 8 5 15 10 15
6 0 10 -7 10 -15z m240 5 c-8 -5 -24 -9 -35 -9 -16 1 -16 2 5 9 35 11 48 11
30 0z m-338 -32 c-9 -9 -12 -7 -12 12 0 19 3 21 12 12 9 -9 9 -15 0 -24z m218
12 c0 -5 -2 -10 -4 -10 -3 0 -8 5 -11 10 -3 6 -1 10 4 10 6 0 11 -4 11 -10z
m-340 -15 c0 -8 -4 -15 -10 -15 -5 0 -10 5 -10 11 0 6 -9 8 -20 4 -11 -3 -20
-3 -20 2 0 5 14 10 30 11 21 2 30 -2 30 -13z m690 1 c0 -8 -4 -18 -10 -21 -5
-3 -10 3 -10 14 0 12 5 21 10 21 6 0 10 -6 10 -14z m-200 -8 c0 14 83 8 88 -6
5 -17 22 -15 22 3 0 8 5 15 10 15 6 0 10 -6 10 -12 0 -10 3 -9 9 1 5 7 14 10
20 7 18 -12 13 -26 -10 -26 -14 0 -19 -5 -16 -14 4 -9 -3 -16 -19 -20 -37 -10
-23 -31 19 -31 24 -1 39 5 42 14 5 14 7 14 16 1 7 -12 11 -12 17 -2 5 8 16 10
27 6 14 -6 16 -4 10 7 -8 12 -6 12 8 0 15 -12 19 -12 31 4 12 16 13 16 19 2 4
-12 0 -18 -16 -22 -159 -34 -222 -44 -225 -35 -2 5 -11 10 -20 10 -14 0 -14 2
-3 9 7 5 11 13 7 19 -3 6 3 17 14 25 20 14 19 47 -2 47 -6 0 -8 -7 -5 -15 5
-11 1 -12 -17 -5 -13 4 -29 4 -37 0 -7 -5 -24 -7 -36 -3 -17 4 -23 1 -23 -11
0 -9 6 -16 13 -16 7 0 17 -8 24 -18 11 -18 9 -18 -21 -4 -24 11 -32 20 -31 41
0 21 5 26 23 24 12 -2 22 2 22 8 0 8 5 7 15 -1 9 -7 15 -8 15 -2z m30 -52 c0
-3 -4 -8 -10 -11 -5 -3 -10 -1 -10 4 0 6 5 11 10 11 6 0 10 -2 10 -4z m-1572
-280 c1 -143 -1 -263 -5 -266 -5 -4 -26 -5 -48 -3 l-40 5 1 256 c0 142 1 261
2 265 1 5 21 7 45 5 l42 -3 3 -259z m1816 236 c3 -5 -1 -9 -9 -9 -8 0 -12 4
-9 9 3 4 7 8 9 8 2 0 6 -4 9 -8z m266 -1 c0 -6 -4 -13 -10 -16 -5 -3 -10 1
-10 9 0 9 5 16 10 16 6 0 10 -4 10 -9z m-1280 -33 c0 -4 -6 -5 -14 -2 -8 3
-12 12 -9 21 5 12 7 12 14 1 5 -7 9 -16 9 -20z m109 29 c-2 -1 -12 -9 -21 -16
-15 -12 -18 -11 -18 3 0 10 8 16 22 16 12 0 19 -1 17 -3z m101 -12 c0 -8 -3
-15 -6 -15 -3 0 -12 7 -20 15 -14 13 -13 15 5 15 12 0 21 -6 21 -15z m1007 0
c0 -18 -13 -20 -23 -4 -4 8 -9 7 -15 -2 -5 -8 -9 -9 -9 -3 0 15 11 24 30 24 9
0 17 -7 17 -15z m30 -7 c-3 -8 -6 -5 -6 6 -1 11 2 17 5 13 3 -3 4 -12 1 -19z
m-477 0 c0 -11 -19 -14 -61 -10 -56 6 -48 17 11 17 28 0 50 -3 50 -7z m386
-15 c-10 -10 -19 5 -10 18 6 11 8 11 12 0 2 -7 1 -15 -2 -18z m-802 8 c4 -5
-1 -8 -9 -7 -21 3 -31 16 -12 16 9 0 18 -4 21 -9z m116 3 c-36 -8 -100 -9
-100 -2 0 5 26 7 58 7 31 -1 50 -3 42 -5z m410 -3 c0 -5 -9 -7 -20 -4 -12 3
-20 0 -20 -8 0 -7 -3 -10 -6 -6 -3 3 -3 10 1 16 8 13 45 15 45 2z m244 -6 c3
-8 1 -15 -4 -15 -6 0 -10 7 -10 15 0 8 2 15 4 15 2 0 6 -7 10 -15z m-309 -6
c-4 -6 -13 -8 -20 -5 -8 3 -15 0 -17 -5 -2 -5 -13 -11 -26 -12 -14 -1 -22 -8
-22 -19 0 -16 -3 -17 -22 -6 -20 10 -21 13 -5 16 9 2 17 8 17 13 0 11 -35 -6
-45 -22 -5 -7 -11 -6 -21 2 -11 9 -14 8 -14 -7 0 -15 -2 -16 -9 -5 -6 9 -5 19
2 26 8 8 14 9 18 3 4 -6 15 -4 30 5 13 9 33 15 44 13 11 -2 29 0 40 5 30 12
57 11 50 -2z m242 5 c-3 -3 -12 -4 -19 -1 -8 3 -5 6 6 6 11 1 17 -2 13 -5z
m37 -10 c5 -14 4 -15 -9 -4 -17 14 -19 20 -6 20 5 0 12 -7 15 -16z m-840 -15
c-3 -5 -14 -9 -25 -9 -26 0 -24 -18 4 -23 19 -4 18 -4 -6 -6 -20 -1 -30 5 -36
22 -5 12 -5 24 0 28 14 8 70 -2 63 -12z m208 5 c21 -2 37 0 34 4 -2 4 9 7 24
7 15 0 26 -3 24 -6 -2 -4 18 -5 44 -3 40 2 43 1 25 -8 -13 -6 -23 -18 -23 -27
0 -14 -2 -14 -10 -1 -6 9 -5 17 3 22 9 6 9 8 -1 8 -8 0 -16 -9 -19 -21 -4 -16
-8 -18 -14 -7 -8 11 -10 11 -18 -1 -7 -11 -10 -10 -18 4 -7 11 -13 14 -17 7
-4 -6 -13 -9 -21 -5 -8 3 -15 0 -15 -6 0 -6 -10 -10 -22 -10 -17 1 -19 2 -5 6
9 2 17 9 17 14 0 12 -37 11 -45 -1 -4 -6 -16 -8 -28 -4 -59 19 -85 22 -80 8 3
-8 8 -12 12 -10 4 3 13 1 21 -5 11 -6 7 -9 -16 -9 -26 0 -33 5 -36 25 -5 24
-4 24 48 22 30 -2 59 0 66 4 7 4 16 5 21 2 6 -3 27 -7 49 -9z m515 -16 c-3 -8
-6 -5 -6 6 -1 11 2 17 5 13 3 -3 4 -12 1 -19z m447 6 c3 -8 1 -14 -4 -14 -6 0
-10 6 -11 13 0 9 -2 9 -6 -1 -5 -12 -23 -7 -23 6 0 14 38 11 44 -4z m-527 0
c-3 -3 -12 -4 -19 -1 -8 3 -5 6 6 6 11 1 17 -2 13 -5z m477 -9 c4 -10 -1 -15
-14 -15 -13 0 -18 5 -14 15 4 8 10 15 14 15 4 0 10 -7 14 -15z m-1214 -18 c8
-3 -4 -6 -27 -6 -23 -1 -44 3 -48 8 -3 6 3 8 15 6 11 -2 22 1 26 7 4 6 9 7 13
1 3 -6 13 -13 21 -16z m650 13 c0 -5 -13 -8 -30 -7 -39 3 -39 17 0 17 17 0 30
-4 30 -10z m239 -3 c-13 -13 -49 -18 -49 -6 0 7 13 11 53 18 4 0 2 -5 -4 -12z
m243 -18 c-15 -6 -20 -14 -16 -26 5 -14 4 -15 -4 -4 -5 7 -14 11 -20 7 -6 -3
-14 -1 -17 5 -4 6 2 13 14 16 11 3 19 9 16 13 -2 4 8 5 22 2 26 -5 26 -5 5
-13z m-317 1 c-3 -5 -12 -10 -18 -10 -7 0 -6 4 3 10 19 12 23 12 15 0z m236
-9 c-9 -15 -1 -28 42 -75 29 -31 55 -56 60 -56 14 0 7 27 -13 45 -11 10 -20
25 -20 34 0 22 49 -38 50 -61 0 -18 20 -36 20 -19 0 6 5 11 10 11 6 0 10 -7
10 -15 0 -17 -2 -17 -52 -6 -24 6 -41 5 -49 -3 -9 -8 -11 -7 -6 7 4 11 1 17
-9 17 -10 0 -14 6 -11 14 4 11 1 13 -10 9 -12 -5 -15 -2 -10 10 4 11 2 14 -8
11 -9 -4 -12 1 -11 13 2 10 -3 30 -10 45 -11 21 -11 28 -1 31 23 10 28 7 18
-12z m-277 -2 c3 -3 -4 -5 -14 -6 -11 -1 -22 2 -24 6 -5 8 30 8 38 0z m-290
-18 c20 -17 21 -31 1 -31 -9 0 -12 6 -9 15 4 10 0 15 -11 15 -11 0 -15 -5 -12
-14 5 -12 2 -12 -21 0 -15 8 -41 14 -59 14 -17 0 -34 3 -36 8 -9 13 130 7 147
-7z m83 13 c-3 -3 -12 -4 -19 -1 -8 3 -5 6 6 6 11 1 17 -2 13 -5z m93 -14
c-24 -15 -36 -11 -14 4 10 8 21 12 24 10 2 -3 -2 -9 -10 -14z m50 10 c-11 -7
0 -10 38 -10 45 0 51 -2 40 -14 -7 -8 -15 -11 -18 -7 -3 3 -17 7 -33 8 -38 1
-59 11 -52 23 3 5 14 10 23 10 15 0 15 -2 2 -10z m-90 -22 c0 -23 -3 -23 -25
1 -16 19 -16 20 4 18 13 -1 21 -8 21 -19z m834 7 c3 -8 1 -15 -4 -15 -6 0 -10
7 -10 15 0 8 2 15 4 15 2 0 6 -7 10 -15z m-904 -16 c0 -5 -7 -9 -15 -9 -9 0
-12 6 -9 15 6 15 24 11 24 -6z m406 5 c-4 -10 1 -25 10 -36 17 -18 15 -18 -70
-14 -97 4 -115 10 -61 20 19 4 35 12 35 17 0 6 6 9 13 6 6 -2 11 -10 10 -16
-4 -14 34 -15 42 -1 3 6 -2 13 -12 17 -16 6 -15 8 7 14 14 4 27 7 29 8 2 1 0
-6 -3 -15z m73 2 c9 -10 8 -15 -3 -19 -10 -4 -14 0 -13 14 2 23 1 23 16 5z
m400 -9 c-2 -2 -16 -7 -31 -11 -21 -5 -28 -3 -28 8 0 9 7 12 20 9 13 -3 20 0
20 8 0 10 3 10 12 1 6 -6 10 -13 7 -15z m-1114 3 c3 -5 -3 -10 -15 -10 -12 0
-18 5 -15 10 3 6 10 10 15 10 5 0 12 -4 15 -10z m1038 -25 c11 -16 14 -25 6
-25 -12 0 -38 29 -39 43 0 14 15 6 33 -18z m-53 5 c0 -6 12 -23 26 -37 24 -24
24 -25 5 -20 -14 3 -20 1 -19 -7 2 -6 -1 -14 -6 -16 -5 -3 -10 9 -11 25 -2 17
-6 38 -10 48 -4 10 -3 17 4 17 6 0 11 -5 11 -10z m-727 -11 c72 0 124 -4 115
-7 -28 -11 -271 -5 -298 7 -22 10 -21 11 13 6 20 -3 97 -6 170 -6z m-728 -9
c-3 -5 3 -11 14 -11 21 -1 39 -5 44 -8 1 -1 20 -4 42 -6 22 -2 51 -6 65 -9 33
-8 98 -18 133 -20 15 0 27 -5 27 -10 0 -4 6 -6 14 -3 7 3 19 0 25 -6 6 -6 11
-8 11 -4 0 3 12 2 28 -4 15 -6 46 -12 68 -14 23 -2 51 -8 63 -14 12 -7 21 -10
21 -8 0 3 21 0 48 -5 26 -5 60 -12 76 -14 16 -2 34 -8 40 -13 6 -5 23 -8 39
-6 15 2 27 -1 27 -5 0 -11 -36 -7 -150 15 -47 9 -93 17 -102 18 -10 1 -18 4
-18 8 0 4 -10 6 -22 6 -13 -1 -57 6 -98 15 -41 9 -109 22 -150 29 -41 6 -104
17 -140 24 -36 7 -66 9 -68 4 -5 -14 -28 -11 -41 5 -12 14 -51 10 -51 -5 0 -5
-6 -9 -14 -9 -16 0 -16 31 -1 42 6 4 17 5 25 3 8 -2 22 0 30 5 19 12 23 12 15
0z m918 3 c-7 -2 -21 -2 -30 0 -10 3 -4 5 12 5 17 0 24 -2 18 -5z m657 -27 c0
-11 -19 -15 -25 -6 -3 5 1 10 9 10 9 0 16 -2 16 -4z m43 -13 c-7 -2 -19 -2
-25 0 -7 3 -2 5 12 5 14 0 19 -2 13 -5z m-622 -46 c-10 -9 -11 -8 -5 6 3 10 9
15 12 12 3 -3 0 -11 -7 -18z m-886 -3 l30 -14 -30 7 c-16 3 -40 7 -52 7 -11 1
-19 4 -16 9 7 11 35 8 68 -9z m912 -6 c-3 -8 -6 -5 -6 6 -1 11 2 17 5 13 3 -3
4 -12 1 -19z m33 13 c0 -6 -4 -12 -8 -15 -5 -3 -9 1 -9 9 0 8 4 15 9 15 4 0 8
-4 8 -9z m60 -12 c0 -16 -15 -16 -33 1 -17 17 -17 17 8 13 14 -3 25 -9 25 -14z
m430 12 c0 -5 8 -11 18 -13 11 -2 13 -6 6 -11 -6 -3 -22 2 -34 13 -19 16 -20
20 -7 20 10 0 17 -4 17 -9z m-641 -21 c36 -5 72 -10 79 -10 6 0 12 -4 12 -8 0
-5 -35 -2 -77 5 -43 8 -86 15 -95 16 -10 1 -18 5 -18 10 0 5 7 6 16 3 10 -4
47 -11 83 -16z m256 0 c-3 -5 -13 -10 -21 -10 -8 0 -14 5 -14 10 0 6 9 10 21
10 11 0 17 -4 14 -10z m65 0 c0 -5 7 -10 15 -10 8 0 15 4 15 10 0 13 43 6 47
-7 2 -5 -4 -16 -14 -24 -15 -12 -16 -12 -10 5 6 16 4 17 -15 12 -41 -13 -51
-11 -53 7 -2 9 1 17 6 17 5 0 9 -4 9 -10z m390 -10 c0 -5 -4 -10 -10 -10 -5 0
-10 5 -10 10 0 6 5 10 10 10 6 0 10 -4 10 -10z m60 0 c-20 -13 -33 -13 -25 0
3 6 14 10 23 10 15 0 15 -2 2 -10z m27 -22 c-3 -7 -5 -2 -5 12 0 14 2 19 5 13
2 -7 2 -19 0 -25z m-952 12 c3 -5 2 -10 -4 -10 -5 0 -13 5 -16 10 -3 6 -2 10
4 10 5 0 13 -4 16 -10z m295 -6 c0 -8 -19 -13 -24 -6 -3 5 1 9 9 9 8 0 15 -2
15 -3z m131 -16 c10 -13 18 -18 19 -12 0 14 48 16 56 3 3 -5 2 -9 -3 -8 -19 3
-34 -2 -28 -10 3 -5 0 -13 -6 -17 -7 -4 -9 -3 -6 3 4 6 -8 10 -28 10 -19 0
-36 -5 -38 -11 -2 -6 -3 -1 -1 11 3 16 0 20 -15 16 -10 -3 -22 0 -26 6 -3 6
-3 11 2 10 24 -4 53 2 48 11 -12 19 7 10 26 -12z m-175 -19 c1 -12 -5 -15 -22
-11 -18 3 -20 7 -11 18 15 16 29 13 33 -7z m454 6 c-10 -12 -10 -18 1 -32 12
-15 12 -16 -2 -11 -9 4 -22 1 -29 -5 -10 -9 -11 -9 -4 3 5 8 7 23 6 32 -2 9 5
18 15 21 10 3 20 5 22 6 2 0 -2 -6 -9 -14z m104 7 c3 7 4 2 3 -12 -1 -16 -9
-26 -22 -29 -11 -2 -23 -8 -27 -15 -5 -7 -8 -5 -8 7 0 9 -7 17 -15 17 -8 0
-15 5 -15 11 0 6 9 8 20 4 13 -4 22 -1 26 10 5 11 10 13 19 5 9 -8 15 -7 19 2z
m-524 -17 c0 -8 -4 -15 -10 -15 -5 0 -10 7 -10 15 0 8 5 15 10 15 6 0 10 -7
10 -15z m585 -5 c3 -6 -1 -7 -9 -4 -18 7 -21 14 -7 14 6 0 13 -4 16 -10z
m-698 -26 c-1 -1 -18 1 -37 4 -28 4 -31 6 -15 12 16 5 61 -8 52 -16z m318 -11
c2 -7 1 -13 -4 -13 -21 0 -71 13 -71 19 0 12 70 6 75 -6z m-190 -8 c22 -8 33
-14 25 -14 -8 -1 -33 6 -55 14 -22 8 -33 14 -25 14 8 1 33 -6 55 -14z m233 3
c-2 -6 -10 -14 -16 -16 -7 -2 -10 2 -6 12 7 18 28 22 22 4z m161 -30 c-7 -13
-14 -18 -16 -11 -3 7 2 19 9 27 18 20 22 12 7 -16z m-29 10 c0 -4 -4 -10 -10
-13 -5 -3 -10 -1 -10 6 0 8 -4 8 -15 -1 -12 -10 -15 -10 -15 4 0 11 8 15 25
14 14 -1 25 -6 25 -10z m-705 -18 c7 -12 -12 -12 -40 0 -18 8 -17 9 7 9 15 1
30 -3 33 -9z m65 -12 c28 1 70 -10 70 -17 0 -12 -102 6 -114 20 -8 9 -6 10 9
4 11 -4 27 -7 35 -7z m-303 -4 c-3 -3 -12 -4 -19 -1 -8 3 -5 6 6 6 11 1 17 -2
13 -5z m508 -12 c-3 -3 -11 0 -18 7 -9 10 -8 11 6 5 10 -3 15 -9 12 -12z m91
3 c4 -8 17 -15 31 -15 13 0 22 -4 18 -10 -7 -11 -56 5 -67 23 -6 9 -8 9 -8 0
0 -7 -4 -13 -10 -13 -5 0 -10 7 -10 15 0 8 9 15 20 15 11 0 23 -7 26 -15z
m-521 -5 l20 -9 -20 1 c-11 0 -31 4 -45 8 l-25 8 25 0 c14 0 34 -3 45 -8z
m365 -10 c12 -8 12 -10 -5 -9 -11 0 -29 4 -40 9 -18 8 -18 9 5 9 14 0 32 -4
40 -9z m-535 -65 c39 -17 21 -18 -25 0 -19 7 -28 14 -20 14 8 0 29 -6 45 -14z
m342 -1 c-3 -3 -12 -4 -19 -1 -8 3 -5 6 6 6 11 1 17 -2 13 -5z m-951 -15 c3
-6 2 -15 -4 -21 -6 -6 -11 -2 -15 11 -5 22 7 29 19 10z m234 1 c-19 -13 -30
-13 -30 0 0 6 10 10 23 10 18 0 19 -2 7 -10z m773 3 c-7 -2 -21 -2 -30 0 -10
3 -4 5 12 5 17 0 24 -2 18 -5z m-1518 -13 c8 -13 75 -13 75 1 0 5 5 7 10 4 20
-12 -2 -25 -43 -25 -23 0 -51 7 -61 15 -17 13 -17 15 -4 15 9 0 20 -4 23 -10z
m459 1 c12 -20 -57 -28 -84 -11 -11 7 -5 9 23 6 20 -3 37 0 37 5 0 12 17 12
24 0z m343 -7 c-3 -3 -12 -4 -19 -1 -8 3 -5 6 6 6 11 1 17 -2 13 -5z m440 0
c-3 -3 -12 -4 -19 -1 -8 3 -5 6 6 6 11 1 17 -2 13 -5z m63 -14 c13 -9 13 -10
0 -9 -8 0 -24 4 -35 9 l-20 9 20 0 c11 0 27 -4 35 -9z m-1990 -215 c19 -7 28
-13 20 -13 -8 0 -31 6 -50 13 -19 7 -28 13 -20 13 8 0 31 -6 50 -13z m601
-301 c-18 -8 -38 -13 -45 -11 -6 3 5 9 24 15 50 15 60 13 21 -4z m396 10 c-3
-3 -12 -4 -19 -1 -8 3 -5 6 6 6 11 1 17 -2 13 -5z m-500 -40 c-3 -3 -12 -4
-19 -1 -8 3 -5 6 6 6 11 1 17 -2 13 -5z m-40 -20 c-3 -3 -12 -4 -19 -1 -8 3
-5 6 6 6 11 1 17 -2 13 -5z"/>
<path d="M4951 1464 c0 -11 3 -14 6 -6 3 7 2 16 -1 19 -3 4 -6 -2 -5 -13z"/>
<path d="M5269 1411 c12 -8 51 -4 51 5 0 2 -15 4 -32 4 -23 0 -29 -3 -19 -9z"/>
<path d="M5206 1401 c-3 -4 6 -6 19 -3 14 2 25 6 25 8 0 8 -39 4 -44 -5z"/>
<path d="M5260 1390 c0 -5 5 -10 11 -10 5 0 7 5 4 10 -3 6 -8 10 -11 10 -2 0
-4 -4 -4 -10z"/>
<path d="M5031 1314 c0 -11 3 -14 6 -6 3 7 2 16 -1 19 -3 4 -6 -2 -5 -13z"/>
<path d="M5030 1225 c0 -15 18 -40 24 -34 3 3 -1 14 -9 25 -8 10 -14 15 -15 9z"/>
<path d="M5160 1155 c0 -8 7 -15 15 -15 8 0 15 7 15 15 0 8 -7 15 -15 15 -8 0
-15 -7 -15 -15z"/>
<path d="M5550 1121 c0 -5 11 -8 25 -7 33 1 33 16 0 16 -14 0 -25 -4 -25 -9z"/>
<path d="M5708 1063 c7 -3 16 -2 19 1 4 3 -2 6 -13 5 -11 0 -14 -3 -6 -6z"/>
<path d="M5193 977 c4 -14 55 -17 60 -4 3 8 -8 12 -30 13 -18 0 -32 -4 -30 -9z"/>
<path d="M5143 943 c9 -9 20 -13 24 -9 4 4 1 11 -7 16 -25 16 -35 11 -17 -7z"/>
<path d="M5187 930 c3 -12 0 -20 -6 -20 -7 0 -9 -5 -6 -10 4 -6 10 -8 13 -6 4
2 27 7 52 11 25 4 48 9 52 12 13 7 -1 23 -16 17 -8 -3 -17 -1 -21 5 -3 6 -21
11 -40 11 -28 0 -32 -3 -28 -20z"/>
<path d="M6768 923 c7 -3 16 -2 19 1 4 3 -2 6 -13 5 -11 0 -14 -3 -6 -6z"/>
<path d="M4034 1932 c4 -20 8 -46 10 -57 1 -11 6 -27 11 -35 5 -8 8 -32 7 -55
-1 -22 1 -45 5 -51 10 -12 58 -32 97 -38 95 -16 140 -32 168 -58 24 -22 33
-26 40 -16 5 8 6 2 2 -14 -4 -18 -2 -28 5 -28 9 0 16 28 12 53 -1 8 22 5 29
-4 3 -4 30 1 60 10 46 14 51 18 31 23 -13 4 -20 11 -16 17 3 6 -1 11 -10 11
-9 0 -14 -4 -11 -9 3 -4 -10 -7 -28 -5 -36 2 -76 20 -88 38 -5 7 -8 3 -8 -8 0
-16 -3 -17 -12 -8 -7 7 -21 12 -32 12 -11 0 -27 7 -37 16 -12 11 -23 13 -34 6
-20 -11 -67 -4 -59 10 3 5 -6 6 -23 3 -15 -3 -22 -2 -15 1 13 6 17 34 4 34 -4
0 -5 21 -3 46 2 36 0 45 -9 39 -10 -6 -12 -2 -8 13 3 11 3 35 -1 53 -6 31 -10
33 -50 36 l-44 3 7 -38z"/>
<path d="M3033 1953 c-18 -4 -23 -14 -29 -61 -4 -31 -8 -76 -8 -99 -1 -34 -6
-44 -28 -58 -26 -15 -28 -15 -29 2 0 16 -1 16 -9 -2 -5 -12 -9 -14 -9 -6 -1
12 -4 12 -18 -1 -16 -12 -121 -38 -175 -43 -10 -1 -21 -4 -24 -8 -4 -4 -14 -1
-22 6 -13 9 -14 9 -8 0 5 -9 0 -13 -16 -13 -13 0 -29 -4 -37 -9 -11 -7 -4 -12
26 -20 22 -6 52 -12 67 -13 38 -3 32 -18 -8 -18 -33 0 -60 -15 -33 -18 7 -1
29 -4 49 -7 l38 -5 -5 32 -5 33 14 -30 c14 -27 15 -28 16 -7 0 12 5 22 10 22
6 0 20 9 32 20 12 11 32 20 45 20 13 0 31 4 41 9 9 5 44 15 77 22 79 16 99 27
86 43 -6 7 -7 17 -2 22 7 8 22 70 36 157 6 36 5 37 -22 36 -15 -1 -38 -4 -50
-6z"/>
<path d="M4180 1953 c0 -5 9 -37 20 -73 11 -36 20 -66 20 -67 0 -2 0 -10 0
-19 0 -11 6 -15 20 -11 11 3 23 1 26 -4 3 -5 22 -8 42 -8 20 1 28 4 18 6 -15
4 -16 7 -5 14 10 6 7 9 -13 9 -22 0 -25 3 -20 23 5 18 7 19 10 5 2 -10 8 -18
14 -18 5 0 7 7 4 16 -3 9 -6 20 -6 25 0 6 -3 8 -7 6 -5 -3 -8 11 -8 31 -1 64
-9 72 -65 72 -27 0 -50 -3 -50 -7z"/>
<path d="M2853 1937 c-3 -5 -12 -40 -18 -76 -7 -36 -16 -77 -21 -91 -6 -22 -5
-23 8 -13 8 7 30 14 48 16 34 4 47 19 46 52 -1 11 4 25 10 30 7 6 14 29 18 52
l6 42 -45 -1 c-25 0 -48 -5 -52 -11z m2 -138 c-10 -15 -25 -10 -19 6 4 8 10
12 15 9 5 -3 7 -10 4 -15z"/>
<path d="M5111 1847 c20 -38 40 -60 64 -71 38 -18 46 -42 18 -49 -10 -3 -4 -6
15 -7 61 -4 77 -2 110 10 24 9 30 15 23 24 -15 18 6 36 40 36 38 0 46 17 9 18
-47 1 -97 23 -111 48 -12 23 -24 26 -141 39 l-57 6 30 -54z"/>
<path d="M1965 1860 c-16 -4 -49 -8 -72 -9 -24 0 -43 -5 -43 -10 0 -5 -17 -15
-37 -22 -21 -6 -42 -14 -48 -18 -5 -3 -18 -4 -27 -3 -10 2 -18 -2 -18 -7 0 -6
3 -10 8 -9 4 1 24 -1 45 -6 36 -7 38 -9 23 -25 -14 -16 -12 -18 27 -29 46 -13
68 -15 112 -13 27 1 28 3 13 15 -27 20 -22 36 13 43 23 4 35 16 55 54 l24 49
-22 -1 c-13 -1 -36 -5 -53 -9z"/>
<path d="M5448 1793 c6 -2 18 -2 25 0 6 3 1 5 -13 5 -14 0 -19 -2 -12 -5z"/>
<path d="M5500 1780 c19 -13 30 -13 30 0 0 6 -10 10 -22 10 -19 0 -20 -2 -8
-10z"/>
<path d="M1565 1770 c-16 -4 -108 -23 -204 -41 l-173 -33 -54 -68 c-30 -37
-59 -79 -64 -93 -5 -14 -15 -25 -22 -25 -9 0 -9 -3 -1 -11 14 -14 69 -23 145
-24 31 0 54 -3 52 -7 -6 -9 145 -22 154 -14 11 11 -20 26 -58 27 -19 0 -44 2
-55 5 -47 10 -84 10 -78 0 4 -6 -3 -3 -14 7 -11 9 -25 17 -32 17 -17 0 -1 29
64 116 60 80 47 75 267 115 70 13 124 27 122 31 -6 9 -8 9 -49 -2z m-198 -306
c-3 -3 -12 -4 -19 -1 -8 3 -5 6 6 6 11 1 17 -2 13 -5z"/>
<path d="M2790 1772 c0 -7 -12 -10 -30 -8 -18 2 -27 -1 -23 -7 4 -6 -2 -8 -15
-5 -13 4 -20 2 -16 -3 6 -11 74 -1 88 12 5 5 7 12 3 16 -4 3 -7 1 -7 -5z"/>
<path d="M5543 1774 c9 -10 280 -64 287 -57 9 9 -26 23 -61 23 -19 0 -58 7
-85 15 -61 17 -152 30 -141 19z"/>
<path d="M4377 1759 c7 -7 15 -10 18 -7 3 3 -2 9 -12 12 -14 6 -15 5 -6 -5z"/>
<path d="M4440 1739 c0 -5 11 -9 25 -9 14 0 25 2 25 4 0 2 -11 6 -25 8 -14 3
-25 1 -25 -3z"/>
<path d="M2678 1733 c7 -3 16 -2 19 1 4 3 -2 6 -13 5 -11 0 -14 -3 -6 -6z"/>
<path d="M2575 1720 c3 -5 8 -10 11 -10 2 0 4 5 4 10 0 6 -5 10 -11 10 -5 0
-7 -4 -4 -10z"/>
<path d="M5844 1719 c-3 -5 -1 -9 3 -9 11 0 133 -164 133 -179 0 -6 -12 -17
-27 -24 -16 -6 -31 -16 -35 -22 -5 -6 -8 -5 -8 3 0 7 -4 10 -10 7 -22 -13 -9
-27 18 -20 15 4 49 9 75 12 27 2 60 8 73 13 l24 10 -37 57 c-21 32 -45 64 -53
73 -8 8 -22 26 -30 38 -16 24 -116 56 -126 41z"/>
<path d="M2535 1710 c-19 -8 -19 -9 3 -9 12 -1 22 4 22 9 0 6 -1 10 -2 9 -2 0
-12 -4 -23 -9z"/>
<path d="M2367 1670 c-28 -27 -20 -39 41 -55 90 -26 114 -35 70 -29 -51 8 -48
-2 6 -26 24 -10 47 -23 50 -29 4 -6 17 -11 29 -10 12 0 16 3 10 6 -18 7 -16
23 2 23 8 0 15 5 15 10 0 6 4 10 8 10 4 0 8 -12 7 -27 0 -32 21 -40 49 -20 22
16 13 62 -10 53 -8 -3 -17 1 -21 10 -5 12 -7 13 -14 3 -6 -11 -9 -10 -14 3 -4
9 -13 14 -20 12 -7 -3 -25 2 -38 11 -19 12 -26 13 -29 4 -3 -8 -9 -9 -17 -5
-11 7 -11 10 0 17 10 6 7 9 -10 9 -19 0 -23 4 -19 23 4 21 1 23 -37 23 -24 0
-48 -7 -58 -16z m273 -130 c0 -5 -8 -10 -17 -10 -15 0 -16 2 -3 10 19 12 20
12 20 0z"/>
<path d="M3557 1633 c-2 -5 -7 -20 -11 -35 -3 -16 -13 -28 -21 -28 -27 0 -15
-20 13 -21 23 -2 24 -2 5 -6 -32 -6 -29 -20 6 -28 45 -10 91 21 61 40 -6 4 -8
10 -5 15 3 4 -3 7 -13 6 -13 -1 -16 6 -14 26 2 25 -12 47 -21 31z"/>
<path d="M3830 1620 c6 -11 19 -20 28 -20 10 0 23 -5 30 -12 10 -9 16 -8 29 5
10 9 13 17 8 17 -6 0 -31 7 -58 15 -46 14 -47 14 -37 -5z"/>
<path d="M4180 1616 c0 -10 9 -16 21 -16 24 0 21 23 -4 28 -10 2 -17 -3 -17
-12z"/>
<path d="M4293 1623 c-18 -6 -16 -23 1 -23 17 0 30 16 19 23 -5 2 -14 2 -20 0z"/>
<path d="M4400 1605 c0 -9 5 -15 11 -13 6 2 11 8 11 13 0 5 -5 11 -11 13 -6 2
-11 -4 -11 -13z"/>
<path d="M4440 1611 c0 -6 4 -13 10 -16 6 -3 7 1 4 9 -7 18 -14 21 -14 7z"/>
<path d="M2856 1601 c-3 -5 7 -11 23 -13 21 -3 28 -1 24 9 -6 15 -39 18 -47 4z"/>
<path d="M3680 1601 c0 -6 -3 -10 -7 -10 -27 4 -54 -3 -51 -13 6 -16 118 -20
118 -5 0 7 4 7 12 -1 7 -7 22 -12 34 -12 15 0 21 -6 20 -17 -1 -13 8 -19 27
-21 47 -6 58 3 44 32 -14 31 -27 34 -27 6 0 -28 -13 -25 -27 6 -10 23 -10 25
5 19 9 -3 13 -2 8 2 -4 4 -36 8 -71 9 -34 1 -67 4 -74 8 -6 4 -11 2 -11 -3z"/>
<path d="M4750 1596 c0 -9 5 -16 10 -16 6 0 10 4 10 9 0 6 -4 13 -10 16 -5 3
-10 -1 -10 -9z"/>
<path d="M4480 1580 c-8 -5 -10 -10 -5 -10 6 0 17 5 25 10 8 5 11 10 5 10 -5
0 -17 -5 -25 -10z"/>
<path d="M2390 1576 c0 -2 7 -7 16 -10 8 -3 12 -2 9 4 -6 10 -25 14 -25 6z"/>
<path d="M3226 1563 c-14 -15 -4 -31 19 -29 14 0 25 4 25 8 0 11 -36 28 -44
21z"/>
<path d="M4510 1553 c0 -26 44 -43 63 -24 8 8 4 11 -16 11 -14 0 -31 8 -36 18
-9 15 -10 15 -11 -5z"/>
<path d="M4530 1560 c0 -5 5 -10 10 -10 6 0 10 5 10 10 0 6 -4 10 -10 10 -5 0
-10 -4 -10 -10z"/>
<path d="M4470 1545 c0 -8 5 -15 10 -15 6 0 10 7 10 15 0 8 -4 15 -10 15 -5 0
-10 -7 -10 -15z"/>
<path d="M3286 1532 c-2 -4 7 -12 20 -19 21 -10 24 -9 24 8 0 19 -33 28 -44
11z"/>
<path d="M5555 1530 c3 -5 8 -10 11 -10 2 0 4 5 4 10 0 6 -5 10 -11 10 -5 0
-7 -4 -4 -10z"/>
<path d="M5590 1529 c0 -5 5 -7 10 -4 6 3 10 8 10 11 0 2 -4 4 -10 4 -5 0 -10
-5 -10 -11z"/>
<path d="M3601 1491 c-8 -5 -30 -8 -48 -5 -30 3 -33 1 -33 -21 0 -24 3 -25 55
-25 54 0 55 0 55 30 0 32 -6 36 -29 21z"/>
<path d="M1435 1461 c19 -9 19 -10 1 -10 -11 -1 -17 -3 -15 -6 3 -2 25 -1 50
4 27 5 34 9 19 10 -14 1 -36 4 -50 6 -22 5 -22 4 -5 -4z"/>
<path d="M5653 1456 c-26 -12 -27 -15 -13 -36 5 -8 12 -11 17 -7 4 5 1 12 -7
17 -13 8 -13 10 1 10 9 0 22 7 29 15 14 17 5 18 -27 1z"/>
<path d="M3520 1260 l0 -72 133 4 c137 5 209 23 221 55 8 21 1 30 -47 55 -35
18 -63 23 -174 26 l-133 4 0 -72z"/>
<path d="M3520 1005 l0 -87 123 5 c67 3 140 9 162 12 110 16 175 59 141 93
-36 36 -108 52 -268 59 l-158 6 0 -88z"/>
<path d="M6460 755 c7 -8 16 -12 21 -9 13 8 1 24 -18 24 -13 0 -13 -3 -3 -15z"/>
<path d="M3125 624 c-27 -8 -65 -22 -82 -30 -34 -15 -35 -21 -35 -109 0 -35 4
-42 53 -75 51 -34 54 -35 162 -37 79 -1 119 3 138 13 16 8 41 14 56 14 36 0
73 10 73 20 0 4 -18 13 -40 20 -47 15 -67 50 -72 118 -3 41 -5 45 -43 58 -64
22 -154 26 -210 8z"/>
<path d="M2655 370 c27 -12 43 -12 25 0 -8 5 -22 9 -30 9 -10 0 -8 -3 5 -9z"/>
<path d="M3433 363 c9 -2 25 -2 35 0 9 3 1 5 -18 5 -19 0 -27 -2 -17 -5z"/>
<path d="M5308 363 c7 -3 16 -2 19 1 4 3 -2 6 -13 5 -11 0 -14 -3 -6 -6z"/>
<path d="M2720 350 c8 -5 20 -10 25 -10 6 0 3 5 -5 10 -8 5 -19 10 -25 10 -5
0 -3 -5 5 -10z"/>
<path d="M3863 350 c-13 -5 -23 -11 -23 -14 0 -7 40 6 46 15 6 10 6 10 -23 -1z"/>
<path d="M2776 341 c9 -9 83 -27 74 -18 -3 3 -23 10 -44 16 -22 5 -35 6 -30 2z"/>
<path d="M3115 330 c7 -11 165 -10 165 2 0 4 -39 8 -86 8 -52 0 -83 -4 -79
-10z"/>
<path d="M4840 330 c-18 -12 -2 -12 25 0 13 6 15 9 5 9 -8 0 -22 -4 -30 -9z"/>
<path d="M3760 321 c-8 -4 -46 -16 -85 -26 -38 -10 -74 -22 -80 -27 -13 -12
28 -2 135 33 47 15 76 27 65 28 -11 0 -27 -3 -35 -8z"/>
<path d="M3439 309 c-10 -6 -7 -9 14 -9 29 0 35 5 14 13 -8 3 -20 1 -28 -4z"/>
<path d="M2905 300 c27 -12 43 -12 25 0 -8 5 -22 9 -30 9 -10 0 -8 -3 5 -9z"/>
<path d="M3113 298 c21 -11 195 -58 217 -58 12 0 45 8 73 17 42 14 47 18 27
21 -14 2 -41 8 -60 14 -37 12 -277 18 -257 6z"/>
<path d="M2417 289 c7 -7 15 -10 18 -7 3 3 -2 9 -12 12 -14 6 -15 5 -6 -5z"/>
<path d="M4720 290 c-13 -8 -12 -10 3 -10 9 0 17 5 17 10 0 12 -1 12 -20 0z"/>
<path d="M2085 280 c3 -5 8 -10 11 -10 2 0 4 5 4 10 0 6 -5 10 -11 10 -5 0 -7
-4 -4 -10z"/>
<path d="M3020 270 c8 -5 20 -10 25 -10 6 0 3 5 -5 10 -8 5 -19 10 -25 10 -5
0 -3 -5 5 -10z"/>
<path d="M4635 270 l-20 -9 20 0 c11 0 27 4 35 9 13 9 13 10 0 9 -8 0 -24 -4
-35 -9z"/>
<path d="M3524 249 c-7 -11 27 -11 45 0 9 6 5 9 -13 9 -15 0 -29 -4 -32 -9z"/>
<path d="M4570 250 c-13 -8 -13 -10 2 -10 9 0 20 5 23 10 8 13 -5 13 -25 0z"/>
<path d="M3115 240 c11 -5 27 -9 35 -9 9 0 8 4 -5 9 -11 5 -27 9 -35 9 -9 0
-8 -4 5 -9z"/>
<path d="M2134 229 c-3 -5 6 -9 20 -9 31 0 34 6 6 13 -11 3 -23 1 -26 -4z"/>
<path d="M3178 223 c7 -3 16 -2 19 1 4 3 -2 6 -13 5 -11 0 -14 -3 -6 -6z"/>
<path d="M4850 220 c0 -5 7 -7 15 -4 8 4 15 8 15 10 0 2 -7 4 -15 4 -8 0 -15
-4 -15 -10z"/>
<path d="M2310 211 c0 -5 -8 -12 -17 -14 -17 -4 -17 -5 0 -6 9 0 17 -5 17 -11
0 -5 14 -10 31 -10 16 0 28 4 24 9 -3 5 3 12 12 14 14 4 13 5 -4 6 -12 0 -25
6 -28 11 -8 13 -35 13 -35 1z"/>
<path d="M3216 210 c5 -5 32 -12 59 -15 l50 -5 -50 14 c-60 18 -72 19 -59 6z"/>
<path d="M2228 183 c7 -3 16 -2 19 1 4 3 -2 6 -13 5 -11 0 -14 -3 -6 -6z"/>
<path d="M2390 180 c-8 -5 -13 -10 -10 -10 3 0 32 -2 65 -4 l60 -4 -45 14
c-54 16 -51 16 -70 4z"/>
<path d="M1498 1383 c6 -2 18 -2 25 0 6 3 1 5 -13 5 -14 0 -19 -2 -12 -5z"/>
</g>
</svg>
